<svg width="389" height="512" viewBox="0 0 389 512" fill="none" xmlns="http://www.w3.org/2000/svg">
<rect x="37" y="188" width="315" height="232" fill="#F5F5F5"/>
<path fill-rule="evenodd" clip-rule="evenodd" d="M1 59.9985C1 59.9985 0.589531 67.5893 0.5 73.4981C0 106.497 1.9548e-05 154.496 1.9548e-05 154.496L2.3875e-05 223.994V293.493V327.992V350.491C2.3875e-05 350.491 -2.98437e-05 365.991 2.3875e-05 369.991C0.000371012 385.49 2.3875e-05 400.49 2.3875e-05 400.49V416.989L0.500024 438.989C1.04683 450.325 0.848936 453.053 2.00002 463.988C3.00002 473.488 13 487.488 19.5 493.987C26 500.487 31 503.487 38 506.987C45 510.487 53.3871 511.987 53.3871 511.987H175.823H247.823H328.823C328.823 511.987 349.934 513.053 367 495.987C377.26 485.728 377 485.488 383.5 474.488C386.573 469.287 389 460.488 389 460.488V358.991V257.493V150.996H238V0H154.689H65C43.4165 1.24243 31.9316 7.19234 17.8231 20.9956C9.77677 30.0425 7.23219 35.3354 3 46.4988C2 49.9987 1.32321 54.7873 1 59.9985ZM128.898 283.462C136.368 286.301 141.403 290.81 144.892 297.791C146.582 301.174 147.621 304.251 147.201 304.629C146.428 305.327 131.528 308.326 131.528 308.326C128.564 299.957 122.032 297.791 114.323 297.791C104.378 297.791 100.014 304.466 96.8231 312.48C94.8381 319.162 94.3231 338.491 98.3231 346.991C104.323 355.617 122.392 360.62 131.528 346.491C133.028 343.357 135.275 340.532 135.383 340.371C135.837 339.694 149.823 346.664 149.823 347.491C149.823 347.99 148.08 352.127 146.42 355.605C140.618 367.763 130.846 374.072 116 374C93.889 373.894 75.8231 356.148 75.8231 331.492C75.8231 296.715 89.1274 288.993 100.514 284.052C108.181 280.725 121.37 280.601 128.898 283.462ZM206.323 280.493C217.323 284.493 227.323 295.493 229.323 300.992C229.323 302.492 222.823 304.992 222.823 304.992L214.323 308.492L207.323 311.492L203.752 304.237C202.823 301.592 198.326 299.243 193.323 298.492C185.323 298.492 184.442 301.094 183.323 302.492C181.323 304.992 184.571 309.277 192.323 311.492C199.323 313.492 201.323 313.992 208.823 316.492C216.085 318.913 220.883 321.748 224.823 328.492C227.286 332.706 227.331 335.635 227.823 340.491C228.438 346.563 226.909 350.755 224.823 356.491C222.823 361.991 212.5 374 192 374C181.125 374.038 173.823 369.491 168.323 365.491C158.823 357.491 157.707 352.023 156.823 346.491L156.323 344.491C156.323 344.491 163.203 341.841 165.323 341.491C167.443 341.141 171.529 340.377 173.823 340.371C177.669 340.361 178.046 340.599 178.668 343.434C179.685 348.064 181.526 351.071 186.323 352.363C191.149 353.663 197.191 352.917 198.907 352.363C200.407 351.879 204.323 348.991 204.323 345.491C204.323 341.491 203.106 337.89 190.823 334.492C175.626 330.286 168.251 321.233 164.093 315.046C161.823 309.992 161.323 308.992 161.105 302.978C161.378 297.527 163.823 291.493 166.323 288.993C170.323 285.493 175.955 281.408 181.323 279.493C187.323 277.993 198.323 277.993 206.323 280.493ZM258.823 310.992C263.323 326.492 269.986 347.166 270.323 347.991C270.663 348.822 281.323 311.994 281.323 311.994L289.5 282H298H308C308 282 303.038 301.992 294.538 333.184L283.823 373.99H270.323H258.323L246.278 338.567C238.298 310.918 231.879 293.014 230.514 289.282L228.208 282.002H237L250 282L258.823 310.992Z" fill="#185084"/>
<path fill-rule="evenodd" clip-rule="evenodd" d="M238 10.1342C238 16.2148 238 145.588 238 148.466L238 151H284.545C308.879 150.927 356.981 151 356.981 151H389L313.586 76.0067C276.318 38.5101 238.187 0.190523 238 0C238 0 238 7.65529 238 10.1342Z" fill="#849DB4"/>
</svg>
