<svg width="389" height="512" viewBox="0 0 389 512" fill="none" xmlns="http://www.w3.org/2000/svg">
<rect x="28" y="184" width="315" height="232" fill="#F5F5F5"/>
<path fill-rule="evenodd" clip-rule="evenodd" d="M43.8872 0.930108C24.5648 4.90584 8.80736 18.8565 2.30607 37.745L0 44.4429L3.7 256.19L0 467.948L2.27814 474.564C7.99046 491.149 20.7477 503.974 37.2143 509.685L43.8872 512H194.001H344.115L350.788 509.685C367.106 504.027 381.049 493.97 387.504 476.958L389 469.449V322V151H324H259H251H238L238.387 123.037V60.9626L238 0H140.36C89.4939 0.0600716 46.0815 0.47857 43.8872 0.930108ZM300.046 201.998C304.472 204.264 308 210.032 308 215C308 219.968 304.472 225.736 300.046 228.003C296.17 229.987 302.081 230.164 190.935 230.164L81.7713 230.159L77.7925 227.915C67.7543 222.252 67.6526 208.547 77.603 202.501L81.5 200.133H190.799C302.087 200.128 296.169 200.012 300.046 201.998ZM300 282C304.426 284.267 307.954 290.035 307.954 295.003C307.954 299.97 304.426 305.738 300 308.005C296.124 309.989 302.081 310.26 190.935 310.26L81.7713 310.255L77.7925 308.01C67.7543 302.347 67.6526 288.643 77.603 282.597L81.5 280.229H190.799C302.087 280.224 296.123 280.015 300 282ZM161.7 362.884C166.645 366.591 168.452 369.924 168.452 375.337C168.452 380.751 166.645 384.084 161.7 387.79C159.041 389.783 157.566 389.864 118.567 390.138L81.597 389.821L77.7474 387.964C67.6513 382.268 67.5187 368.611 77.5 362.5L81.597 361.821L118 362C157.21 362.254 160.285 361.823 161.7 362.884Z" fill="#B05E30"/>
<path fill-rule="evenodd" clip-rule="evenodd" d="M238 10.1342C238 16.2148 238 145.588 238 148.466L238 151C238 151 266.368 151 284.545 151C312.833 151 356.981 151 356.981 151H389L313.586 76.0067C276.318 38.5101 238.186 0.190523 238 0C238 0 238 7.65529 238 10.1342Z" fill="#D9946D"/>
</svg>
