<svg width="389" height="512" viewBox="0 0 389 512" fill="none" xmlns="http://www.w3.org/2000/svg">
<rect x="36" y="204" width="315" height="232" fill="#F5F5F5"/>
<path fill-rule="evenodd" clip-rule="evenodd" d="M34.0869 2.25419C30.6458 3.42272 25.7828 5.75499 23.2802 7.43567C17.2694 11.4751 8.74128 21.2429 5.66878 27.6073C-0.154295 39.6714 0.000416295 33.444 0.000416295 256.068C0.000416295 478.79 -0.157703 472.459 5.68926 484.572C8.86869 491.157 18.225 501.626 24.2881 505.382C35.8262 512.526 27.1194 512.2 196.817 511.853L352.03 511.536L358.647 508.714C366.772 505.249 378.189 494.319 382.572 485.809C389.107 473.118 388.959 477.225 388.981 308.386V151L314 76.5L238 0.0649414L142.166 0.0649847C48.0309 0.123892 39.8713 0.289795 34.0869 2.25419ZM307.685 179.128H340.617H279.492H218.369H225.213C225.213 179.128 230.76 179.128 234.314 179.128C243.865 179.128 258.771 179.128 258.771 179.128H307.685ZM156.734 287.837C159.976 288.854 162.629 290.259 162.629 290.958C162.629 291.657 161.815 295.191 160.818 298.812C159.366 304.093 158.635 305.238 157.121 304.603C152.628 302.716 142.211 301.337 138.307 302.111C133.401 303.084 129.64 306.545 129.64 310.089C129.64 313.866 134.146 317.463 144.458 321.918C154.7 326.345 162.11 332.488 164.509 338.545C167.879 347.053 165.307 360.113 159.067 366.175C157.57 367.631 153.792 370.039 150.671 371.527C143.133 375.123 125.309 375.436 116.274 372.132C112.99 370.931 110.302 369.696 110.302 369.39C110.302 369.083 111.109 365.437 112.095 361.288L113.888 353.745L118.09 355.046C125.303 357.618 137.257 358.117 141 356C144.3 354.133 146.85 350.755 145.5 347C144.201 343.391 142.435 341.015 133.002 336.965C118.284 330.644 111.44 322.476 111.44 311.233C111.44 300.611 117.993 291.985 129.303 287.721C135.155 285.515 149.528 285.575 156.734 287.837ZM232.588 289.87C245.151 296.766 252.585 309.773 253.41 326.298C254.241 342.959 248.793 358.29 239.331 365.918C231.33 372.367 225.5 374.287 213.818 374.32C204.247 374.345 202.268 373.963 196.512 370.975C188.565 366.852 181.778 358.975 178.335 349.88C176.248 344.365 175.761 340.723 175.738 330.468C175.713 318.795 175.978 317.249 179.262 309.924C183.297 300.926 188.93 294.404 195.933 290.623C203.581 286.493 205.816 286.039 216.662 286.404C225.06 286.687 227.923 287.311 232.588 289.87ZM97.5845 321.151C97.2352 353.684 97.1124 355.326 94.6621 360.174C89.0176 371.335 79.89 375.776 65.0314 374.588C60.4039 374.218 55.5 373 55.5 373L56.3906 365.133L57.5 357C57.5 357 61.7998 358.157 64.5889 357.98C70.7986 357.585 76.7083 356.41 78.3884 350.015C79.0619 347.451 79.5783 332.887 79.5817 316.343L79.5885 287.189H88.7685H97.9473L97.5845 321.151ZM298.884 308.528C305.126 320.264 311.664 333.384 313.414 337.682C316.382 344.977 319.791 350.845 318.071 345.698C317.666 344.486 316.997 330.827 316.584 315.342L315.834 287.189H324.547H333.26V330.468V373.748H323.71H314.16L302.505 351.309C296.095 338.968 288.924 324.496 286.57 319.15L282.289 309.43L282.925 341.589L283.561 373.748H274.853H266.145V330.468V287.189H276.841H287.535L298.884 308.528ZM205.045 304.131C197.417 309.293 192.937 325.835 195.555 339.164C200.597 364.831 225.875 366.469 232.724 341.572C236.56 327.626 232.123 309.66 223.441 303.99C218.528 300.78 209.896 300.846 205.045 304.131Z" fill="#C19011"/>
<path fill-rule="evenodd" clip-rule="evenodd" d="M238 10.1342C238 16.2148 238 145.588 238 148.466L238 151H284.545C308.879 150.927 356.981 151 356.981 151H389L313.586 76.0067C276.318 38.5101 238.187 0.190523 238 0C238 0 238 7.65529 238 10.1342Z" fill="#CDB884"/>
</svg>
