<svg width="331" height="92" viewBox="0 0 331 92" fill="none" xmlns="http://www.w3.org/2000/svg">
<path fill-rule="evenodd" clip-rule="evenodd" d="M94.4525 1.15308C81.0793 3.08038 69.8486 11.9992 64.9005 24.6226C60.8554 34.9428 60.8528 57.3893 64.8966 67.6978C68.7904 77.6253 74.3302 83.8522 83.1031 88.1661C89.6398 91.38 92.0325 91.8328 102.299 91.7989C116.322 91.7532 123.396 89.0769 131.442 80.7753C139.319 72.6472 142.429 63.3487 142.576 47.4723C142.745 29.2705 139.99 21.1464 130.383 11.5086C125.048 6.15728 121.611 3.86592 117.285 2.77504C108.584 0.582849 101.774 0.0987397 94.4525 1.15308ZM282.788 1.14786C259.731 5.06901 249.071 21.3747 250.484 50.5622C251.411 69.7347 258.432 82.1389 272.102 88.765C281.021 93.0881 298.922 93.0763 308.515 88.7415C316.437 85.161 323.631 77.7454 327.508 69.1619C331.693 59.8986 332.22 38.0928 328.527 26.9805C323.558 12.0279 313.855 3.73021 298.426 1.23398C293.767 0.481069 289.662 -0.0708919 289.304 0.00740064C288.945 0.0869981 286.013 0.599815 282.788 1.14786ZM186.62 3.6206C173.388 8.1968 163.032 19.9015 160.218 33.4579C154.84 59.3701 166.004 84.3506 185.564 90.1678C192.812 92.3234 213.835 92.2464 223.819 90.0282L231.964 88.2196V66.2142V44.2101H216.978H201.991V48.7223V53.2346L212.091 53.6156L222.191 53.9966L222.566 66.9306C222.773 74.0434 222.379 80.4269 221.691 81.1159C219.63 83.1802 197.82 83.8939 192.098 82.0841C178.06 77.6449 170.801 67.3103 169.704 50.2034C168.559 32.3266 175.656 18.4153 188.96 12.4598C196.289 9.17807 211.721 8.99408 220.074 12.0866C227.524 14.8451 227.466 14.8569 229.407 10.1632C230.802 6.79406 230.774 5.93936 229.241 4.9855C222.343 0.697678 197.385 -0.102208 186.62 3.6206ZM0 46.8198V91.1856H25.4118H50.8236V86.6185V82.0515H30.6245H10.4254V42.2528V2.45404H5.21268H0V46.8198ZM117.812 13.2597C127.936 18.8576 132.164 28.9861 132.092 47.4723C132.001 70.8961 121.686 83.2989 102.299 83.2989C88.9023 83.2989 80.923 78.082 75.4197 65.7249C73.0714 60.4532 72.5266 56.8608 72.554 46.8198C72.6113 25.1171 79.1741 14.1353 94.4798 10.128C100.572 8.53215 112.047 10.0732 117.812 13.2597ZM306.205 13.2675C310.909 15.692 312.894 17.8568 316.015 23.9675C319.698 31.177 319.928 32.5197 319.928 46.7272C319.928 60.6972 319.658 62.3374 316.325 68.67C311.184 78.4383 304.871 82.2929 292.85 83.0066C284.466 83.5025 282.656 83.1606 276.272 79.871C270.164 76.725 268.538 75.056 265.265 68.5812C262.112 62.3387 261.33 58.9421 260.88 49.5327C260.173 34.708 262.805 25.0975 269.556 17.8503C278.042 8.74224 293.637 6.79145 306.205 13.2675Z" fill="#FF0000"/>
</svg>
