<svg width="382" height="512" viewBox="0 0 382 512" fill="none" xmlns="http://www.w3.org/2000/svg">
<rect x="34" y="206" width="315" height="232" fill="#F5F5F5"/>
<path fill-rule="evenodd" clip-rule="evenodd" d="M52 1.417C28.628 6.547 9.327 24.003 2.218 46.441L0 53.441V255.941V458.441L2.218 465.441C7.518 482.168 19.942 496.616 35.727 504.409C52.001 512.443 42.775 512.017 193.787 511.712L328 511.441L336.618 508.356C356.665 501.178 370.96 486.925 378.321 466.776L381 459.441L381.265 305.193L381 151L309 75L237 0L147.5 0.05C77.324 0.089 56.705 0.384 52 1.417ZM146.5 290.941V300.941H133H119.5V337.441V373.941H107.5H95.5V337.441V300.941H82.5H69.5V290.941V280.941H108H146.5V290.941ZM183.5 291.441C186.918 297.216 190.068 301.941 190.5 301.941C190.932 301.941 194.082 297.216 197.5 291.441L203.714 280.941H216.107C222.923 280.941 228.5 281 228.5 281C228.5 281.212 223.045 290.871 216.378 302.063C209.711 313.255 204.064 322.914 203.828 323.529C203.592 324.143 209.783 335.4 217.585 348.544C225.387 361.687 232.267 373.587 232.5 374C232 374 226.882 374 220 374H207.587L199.296 359.969C194.733 352.284 190.775 345.991 190.5 345.983C190.225 345.975 186.409 352.091 182.019 359.575C177.63 367.058 173 373.5 173 374C172.5 374 166.5 374 160 374H148L160.8 352.941C167.566 341.666 174.161 330.551 175.456 328.242L177.811 324.042L166.983 305.742C161.028 295.676 155.288 285.979 154.229 284.191L152.302 280.941H164.794H177.286L183.5 291.441ZM311.5 290.941V300.941H298.5H285.5V337.441V373.941H273.5H261.5V337.441V300.941H248H234.5V290.941V280.941H273H311.5V290.941Z" fill="#251D36"/>
<path fill-rule="evenodd" clip-rule="evenodd" d="M237 10C237 16 237 143.66 237 146.5V151H281.5C304.68 150.928 336.111 151.341 350.5 151H381L309 75C273.5 38 237.178 0.188 237 0C237 0 237 7.5539 237 10Z" fill="#676173"/>
</svg>
