<svg width="1338" height="673" viewBox="0 0 1338 673" fill="none" xmlns="http://www.w3.org/2000/svg">
<path fill-rule="evenodd" clip-rule="evenodd" d="M484.19 1.11851C482.895 1.88792 475.538 2.88132 467.844 3.32639C453.089 4.18016 451.118 4.72414 454.516 7.00474C456.04 8.02723 455.497 8.22213 452.53 7.71889C448.525 7.03965 448.498 7.08183 451.037 9.94568C453.585 12.8183 453.564 12.8401 449.681 11.3332C447.511 10.4911 443.785 9.80314 441.401 9.80314C437.998 9.80314 437.254 10.3078 437.945 12.1463C438.625 13.9527 438.252 14.2393 436.316 13.3971C431.783 11.4249 421.604 11.1369 414.097 12.7703C410.041 13.6517 404.618 14.728 402.046 15.1614C398.393 15.7766 397.542 16.5097 398.162 18.5023C398.808 20.5808 397.823 21.2338 392.862 22.0119C385.737 23.1304 374.44 28.7825 375.117 30.8915C375.374 31.6914 377.244 32.5496 379.272 32.7954C383.338 33.2899 385.486 36.7268 382.792 38.4256C381.198 39.4307 374.442 40.8008 361.435 42.7585C352.202 44.1475 351.494 50.7028 360.397 52.3725C363.831 53.0169 363.815 53.0489 359.956 53.2394C357.515 53.3601 356.319 54.0437 356.893 54.9906C357.411 55.8458 358.699 56.2065 359.755 55.792C360.95 55.3251 361.396 55.7876 360.934 57.0166C360.497 58.1788 361.464 59.4049 363.285 59.9939C364.987 60.5452 367.599 62.2411 369.09 63.7625C372.192 66.9274 377.463 67.3739 380.277 64.7093C381.817 63.2505 381.991 63.2621 381.155 64.7675C380.17 66.542 383.248 66.3747 389.927 64.289C393.641 63.1283 406.563 68.3891 411.138 72.9227C416.775 78.5093 422.193 89.8673 420.195 91.9064C417.405 94.7528 418.714 99.6326 422.528 100.61C425.356 101.334 425.858 101.996 424.679 103.446C423.832 104.488 423.561 105.769 424.077 106.295C424.593 106.822 424.267 107.253 423.353 107.253C420.855 107.253 421.352 112.627 423.945 113.642C428.089 115.265 433.173 114.55 434.05 112.221C434.675 110.556 435.207 110.399 435.968 111.655C437.809 114.694 435.797 118.888 432.5 118.888C430.284 118.888 428.908 120.248 427.717 123.615C425.798 129.035 426.7 134.102 430.469 139.084C431.913 140.992 433.093 143.752 433.093 145.219C433.093 147.109 433.785 147.616 435.465 146.958C437.04 146.341 437.498 146.59 436.825 147.7C436.268 148.619 436.621 150.857 437.609 152.674C438.598 154.491 439.429 156.521 439.458 157.186C439.485 157.849 440.631 159.231 442.002 160.255C443.373 161.279 444.497 162.783 444.497 163.597C444.497 165.401 452.788 169.091 454.02 167.836C454.503 167.342 455.949 168.174 457.233 169.686C459.472 172.32 461.843 173.248 465.382 172.875C467.158 172.689 470.154 165.18 470.154 160.917C470.154 159.472 471.815 156.595 473.846 154.524C475.876 152.453 477.196 149.847 476.777 148.734C476.359 147.621 476.782 146.391 477.718 146.001C478.933 145.493 478.809 144.849 477.281 143.747C475.437 142.416 475.485 142.202 477.638 142.182C479.009 142.17 480.132 141.505 480.132 140.705C480.132 139.905 481.255 139.246 482.627 139.242C489.509 139.22 496.934 135.574 503.086 129.196C506.701 125.449 510.408 122.641 511.328 122.954C514.717 124.107 528.152 119.866 537.149 114.801C545.719 109.978 546.146 109.51 542.851 108.564C540.891 108.003 537.363 107.426 535.011 107.283C532.659 107.139 531.537 106.693 532.516 106.29C533.497 105.885 534.298 104.505 534.298 103.221C534.298 101.355 534.881 101.525 537.205 104.069C543.016 110.435 551.084 106.32 546.571 99.2922C545.255 97.2443 544.982 95.3681 545.804 94.0431C548.517 89.6695 547.294 88.1103 541.487 88.5379C538.383 88.7662 535.39 88.4884 534.834 87.9212C534.278 87.3539 536.656 86.8812 540.118 86.8696C549.155 86.842 552.829 85.5373 552.829 82.3564C552.829 80.8103 553.826 79.6176 555.121 79.6176C556.818 79.6176 557.195 78.726 556.57 76.188C555.816 73.122 556.124 72.8354 559.478 73.49C562.065 73.9947 562.918 73.7052 562.222 72.5562C561.666 71.6399 560.267 70.8908 559.109 70.8908C557.564 70.8908 557.347 70.213 558.292 68.3455C559.001 66.9463 560.014 63.3465 560.546 60.3459C561.43 55.3455 561.239 54.8902 558.238 54.8698C555.809 54.8524 555.474 54.5193 556.941 53.571C558.525 52.5485 558.332 51.9769 555.966 50.6839C554.344 49.7981 552.072 49.0738 550.917 49.0738C549.496 49.0738 549.068 48.1007 549.593 46.0572C550.189 43.7301 551.131 43.2356 553.71 43.8959C556.719 44.6667 557.005 44.3235 556.566 40.475C556.183 37.1166 556.724 36.0243 559.086 35.3931C560.74 34.9509 564.66 31.9896 567.796 28.813C570.932 25.635 574.459 22.9806 575.635 22.9137C576.811 22.8454 579.377 21.881 581.337 20.7698L584.901 18.7496L580.888 17.1846C575.748 15.1818 563.257 15.1556 562.051 17.1468C561.42 18.1882 560.492 18.1329 559.116 16.9679C557.671 15.7432 557.105 15.7243 557.105 16.898C557.105 17.7954 556.463 18.53 555.68 18.53C554.896 18.53 554.254 17.5875 554.254 16.4341C554.254 14.0938 551.663 11.963 550.393 13.259C549.941 13.7186 550.3 14.9912 551.189 16.085C552.458 17.6456 552.048 18.4252 549.278 19.7139C546.074 21.2033 545.78 21.0578 546.082 18.1285C546.33 15.7214 545.559 14.7789 543.043 14.4124C541.189 14.1418 538.975 14.6305 538.125 15.4974C536.247 17.4144 534.298 17.5511 534.298 15.7665C534.298 15.0465 537.535 13.6648 541.491 12.6961C548.597 10.9565 550.384 8.04905 544.871 7.2011C538.144 6.16697 535.759 5.26811 533.433 2.89151C531.305 0.718529 527.716 0.304005 508.745 0.0349286C496.505 -0.138153 485.49 0.349094 484.19 1.11851ZM330.721 5.55755C322.585 6.99747 317.634 9.12536 317.634 11.182C317.634 11.8845 315.713 11.7187 313.364 10.814C309.906 9.48316 308.345 9.61406 305.167 11.5049C303.008 12.7892 298.003 14.2844 294.046 14.8269C284.73 16.1039 281.873 17.8173 286.911 19.1074C288.978 19.6368 290.3 20.6767 289.85 21.42C288.846 23.0752 296.445 27.2568 300.458 27.2568C303.524 27.2568 304.388 29.3585 301.955 30.8929C301.171 31.3875 300.529 31.1722 300.529 30.413C300.529 29.6552 298.153 28.5803 295.248 28.0233C292.343 27.4677 288.124 25.4314 285.873 23.4984C281.782 19.9859 274.872 18.6929 274.872 21.4389C274.872 22.2388 274.145 22.8934 273.257 22.8934C270.976 22.8934 266.31 28.704 266.365 31.4791C266.443 35.5196 270.051 38.8911 274.316 38.9143C277.616 38.9332 278.01 39.2445 276.297 40.4793C274.826 41.5426 274.673 42.2392 275.809 42.7163C276.716 43.0974 278.9 44.6828 280.66 46.2419C284.65 49.7719 295.048 50.0948 298.29 46.7888C300.161 44.8776 300.529 44.8486 300.529 46.607C300.529 47.7909 302.439 49.1 304.899 49.6018C307.622 50.1574 308.899 51.1071 308.285 52.1209C307.568 53.3048 307.016 53.2801 306.259 52.0307C305.688 51.0853 303.081 50.5253 300.465 50.7842C295.932 51.2337 295.828 51.3733 298.223 53.8008C300.618 56.2298 300.578 56.3461 297.352 56.3461C295.493 56.3461 293.289 57.0428 292.454 57.8951C290.709 59.6754 279.148 60.8404 279.148 59.2376C279.148 57.2595 267.528 56.173 265.424 57.9548C263.762 59.3627 264.058 59.9852 267.173 61.6346C269.234 62.7254 272.694 63.6185 274.86 63.6185C279.587 63.6185 282.834 67.1601 282.254 71.682C282.02 73.4943 282.654 75.4957 283.662 76.1313C284.67 76.7669 294.745 77.4854 306.05 77.7268C327.447 78.1835 330.463 77.4927 330.463 72.1315C330.463 68.1012 324.04 66.0969 314.783 67.2401C304.077 68.5608 295.989 68.2946 294.293 66.5638C293.516 65.7711 293.157 64.8708 293.498 64.5653C293.837 64.2584 300.69 63.6548 308.727 63.2229C318.85 62.6789 323.051 62.9131 322.402 63.9821C321.776 65.0162 322.977 65.2184 326.036 64.5944C328.891 64.0126 330.279 64.2003 329.737 65.0948C329.26 65.8831 329.938 66.5274 331.244 66.5274C332.769 66.5274 333.325 65.7464 332.798 64.3457C332.299 63.0163 332.796 62.164 334.071 62.164C335.222 62.164 336.165 61.1822 336.165 59.9823C336.165 58.7824 335.043 57.7802 333.67 57.757C331.294 57.7148 331.294 57.6421 333.67 56.2298C335.043 55.4138 336.165 53.7979 336.165 52.6372C336.165 51.2744 337.643 50.5283 340.345 50.5283C343.273 50.5283 344.796 49.657 345.43 47.6193C345.927 46.0194 346.932 44.7104 347.664 44.7104C348.395 44.7104 348.993 43.3403 348.993 41.6647C348.993 39.8496 350.138 38.3151 351.829 37.8642C353.388 37.4482 354.369 36.6221 354.01 36.0287C353.65 35.4352 354.789 35.2287 356.541 35.5705C358.406 35.9341 361.085 34.9887 363.008 33.287C364.814 31.6885 370.57 28.2051 375.8 25.5463C381.03 22.8875 385.957 20.0004 386.75 19.1321C387.544 18.2638 390.919 16.7642 394.251 15.8014C401.254 13.7767 402.622 9.80314 396.317 9.80314C394.122 9.80314 391.621 9.08318 390.76 8.20468C387.947 5.33501 343.138 3.35839 330.721 5.55755ZM843.614 16.8559C843.614 17.5351 840.667 19.3314 837.063 20.8484C833.461 22.3639 829.911 24.7536 829.174 26.1572C828.437 27.5622 826.894 28.7112 825.747 28.7112C824.598 28.7112 823.659 29.3657 823.659 30.1657C823.659 32.3561 827.445 31.9125 829.869 29.4385C831.045 28.2385 833.359 27.2568 835.011 27.2568C837.616 27.2568 837.802 27.6597 836.416 30.301C834.892 33.207 835.066 33.3001 840.286 32.3459C843.292 31.7962 848.452 31.0166 851.751 30.6137C857.937 29.8603 861.659 27.0764 860.045 24.4118C858.51 21.8767 852.925 22.7115 850.742 25.8023C849.366 27.7498 847.051 28.7112 843.74 28.7112C839.126 28.7112 838.979 28.5731 841.552 26.6532C843.549 25.1638 844.585 25.0518 845.309 26.2474C845.86 27.1564 846.826 27.3746 847.455 26.7317C848.085 26.0903 847.355 24.6358 845.834 23.5013C844.314 22.3668 843.871 21.4389 844.852 21.4389C845.831 21.4389 846.237 20.7844 845.753 19.9844C845.268 19.1845 845.872 18.53 847.094 18.53C848.315 18.53 849.316 17.8754 849.316 17.0755C849.316 16.2755 848.033 15.621 846.465 15.621C844.897 15.621 843.614 16.1766 843.614 16.8559ZM860.72 18.53C863.509 20.3684 866.421 20.3684 866.421 18.53C866.421 17.73 864.658 17.0857 862.501 17.0973C859.447 17.1148 859.053 17.4318 860.72 18.53ZM962.637 22.8934C962.152 23.6933 963.077 24.3478 964.691 24.3478C966.305 24.3478 967.626 23.6933 967.626 22.8934C967.626 22.0934 966.702 21.4389 965.572 21.4389C964.442 21.4389 963.122 22.0934 962.637 22.8934ZM976.492 22.9544C972.963 24.4002 966.309 31.4544 966.261 33.8019C966.211 36.2265 983.636 43.7417 989.6 43.8668C995.031 43.9802 995.182 43.8493 995.204 38.9594C995.225 34.4986 994.705 33.7975 990.567 32.7037C987.112 31.7889 986.134 30.8697 986.782 29.1447C987.297 27.776 986.492 25.7092 984.828 24.1282C981.678 21.132 981.129 21.0549 976.492 22.9544ZM863.927 23.8562C860.903 25.1012 861.958 27.2568 865.592 27.2568C869.956 27.2568 873.548 25.8736 873.548 24.1922C873.548 22.8279 866.98 22.5996 863.927 23.8562ZM799.426 25.4576C794.308 26.307 792.388 28.6734 796.647 28.8829C798.568 28.9789 800.62 28.9789 801.208 28.8829C801.797 28.7883 802.277 29.4516 802.277 30.3577C802.277 32.2994 810.76 31.3642 817.244 28.7083C821.284 27.0546 821.354 26.8917 818.51 25.7732C815.427 24.5616 805.788 24.4016 799.426 25.4576ZM316.209 28.7112C316.209 29.5112 313.804 30.0886 310.863 29.9941C305.544 29.8224 305.538 29.8166 309.794 28.7112C315.966 27.1084 316.209 27.1084 316.209 28.7112ZM327.969 28.2196C326.989 28.624 325.386 28.624 324.405 28.2196C323.426 27.8167 324.227 27.4866 326.187 27.4866C328.147 27.4866 328.949 27.8167 327.969 28.2196ZM698.222 28.2138C697.046 28.6138 695.197 29.2305 694.112 29.5825C692.721 30.0348 693.349 31.2827 696.25 33.8295C703.366 40.0764 718.223 41.3564 724.56 36.2686C726.619 34.6164 728.301 32.7314 728.299 32.0798C728.297 30.0072 711.993 27.3179 709.939 29.053C708.65 30.1424 707.063 30.1046 704.526 28.925C702.553 28.0073 700.809 27.3091 700.649 27.3717C700.489 27.4342 699.398 27.8138 698.222 28.2138ZM252.065 33.0746C252.065 33.8746 252.654 34.5291 253.373 34.5291C254.093 34.5291 255.697 34.9262 256.937 35.412C258.417 35.9908 259.192 35.492 259.192 33.9575C259.192 32.4347 257.952 31.6202 255.628 31.6202C253.668 31.6202 252.065 32.2747 252.065 33.0746ZM686.706 34.8927C686.644 36.6934 686.277 37.3682 685.889 36.3937C684.931 33.9808 677.051 32.7416 671.972 34.2033C668.68 35.1516 667.766 36.2905 667.569 39.691C667.283 44.6551 669.072 47.6091 672.382 47.6411C675.84 47.6746 678.407 49.7458 678.844 52.8554C679.058 54.3753 680.551 56.2996 682.161 57.1301C683.771 57.962 686.135 59.5271 687.414 60.6106C688.691 61.6928 689.904 62.3211 690.107 62.0084C690.31 61.6942 691.295 59.8005 692.299 57.8006C693.301 55.8007 695.64 52.2474 697.497 49.9028C700.383 46.2638 701.205 45.9205 703.131 47.5524C704.371 48.6025 705.218 50.5195 705.011 51.8126C704.777 53.2845 705.57 54.0888 707.13 53.9623C708.502 53.8517 709.625 54.387 709.625 55.1506C709.625 56.8508 715.254 55.1724 717.606 52.774C718.923 51.43 718.701 50.6533 716.622 49.3298C715.147 48.3887 712.969 47.6193 711.783 47.6193C710.596 47.6193 709.625 46.5852 709.625 45.3213C709.625 43.989 707.226 42.0603 703.923 40.7368C700.787 39.4801 698.222 37.8962 698.222 37.217C698.222 36.5392 697.328 35.9836 696.236 35.9836C695.144 35.9836 693.881 35.0018 693.429 33.8019C692.088 30.2355 686.837 31.0864 686.706 34.8927ZM847.891 33.0746C847.891 33.8746 848.891 34.5291 850.113 34.5291C851.335 34.5291 851.939 33.8746 851.454 33.0746C850.97 32.2747 849.97 31.6202 849.232 31.6202C848.494 31.6202 847.891 32.2747 847.891 33.0746ZM233.06 38.4082C231.345 40.1579 232.059 41.5891 235.148 42.5898C237.48 43.3446 237.738 43.8566 236.258 44.7904C233.345 46.6274 235.214 47.6091 243.675 48.6884C250.537 49.5639 250.899 49.7719 247.076 50.6533C243.381 51.5042 243.709 51.6613 249.486 51.8111C253.164 51.9056 256.586 51.2991 257.092 50.4643C258.649 47.8957 253.825 42.1083 249.278 41.0888C246.909 40.5579 244.604 39.5194 244.157 38.7805C243.226 37.2431 234.489 36.9493 233.06 38.4082ZM1001.84 38.4184C1000.66 38.7718 997.902 41.6967 995.705 44.9184L991.713 50.7755L1001.41 49.8083C1013.83 48.5676 1016.09 47.884 1016.09 45.3736C1016.09 43.8741 1004.65 36.4868 1004.06 37.6068C1004.01 37.6998 1003.01 38.0649 1001.84 38.4184ZM207.164 45.3271L204.313 47.5262L207.164 47.6717C209.827 47.8069 209.803 47.9204 206.808 49.3938C203.065 51.2366 202.819 52.4205 205.68 54.8422C208.361 57.1126 215.349 55.5782 217.245 52.3013C218.041 50.9268 218.664 48.492 218.63 46.8921C218.55 43.1643 211.258 42.1694 207.164 45.3271ZM259.192 45.4376C259.192 46.6376 259.872 47.6193 260.701 47.6193C261.531 47.6193 261.826 48.2549 261.356 49.0316C260.885 49.8083 262.131 50.8599 264.122 51.3704C266.115 51.8809 267.744 52.9194 267.744 53.6786C267.744 54.4379 270.47 54.8582 273.803 54.6109C280.191 54.1397 282.101 51.5798 276.653 50.7901C274.679 50.505 273.446 49.3152 273.446 47.6993C273.446 45.922 272.006 44.7802 268.992 44.165C261.952 42.7279 259.192 43.0872 259.192 45.4376ZM684.68 46.1649C685.165 46.9648 684.881 47.6193 684.051 47.6193C683.222 47.6193 682.542 46.9648 682.542 46.1649C682.542 45.3649 682.824 44.7104 683.171 44.7104C683.517 44.7104 684.195 45.3649 684.68 46.1649ZM197.343 51.1493C198.355 53.8386 202.693 54.2939 201.819 51.6191C201.494 50.6199 200.16 49.5901 198.855 49.3312C197.202 49.004 196.744 49.5552 197.343 51.1493ZM230.936 52.918C231.486 55.7745 235.831 58.8507 237.259 57.3948C238.387 56.2429 233.829 50.5283 231.784 50.5283C231.064 50.5283 230.682 51.6031 230.936 52.918ZM286.275 54.9891C286.275 57.437 286.872 57.8093 289.482 56.9905C293.602 55.6989 293.88 55.4036 292.748 53.5346C291.026 50.6897 286.275 51.7587 286.275 54.9891ZM1003.26 54.531C1000.52 55.9287 998.273 58.0551 998.273 59.2551C998.273 61.8978 988.198 64.7646 979.094 64.7122C975.59 64.6933 972.502 65.4162 972.204 66.3296C971.908 67.2386 970.172 67.9819 968.347 67.9819C963.662 67.9819 949 73.9205 949.924 75.4448C950.344 76.14 949.931 76.7087 949.006 76.7087C947.761 76.7087 947.793 77.289 949.124 78.9253C950.116 80.1441 950.675 81.3819 950.369 81.6743C950.061 81.9681 944.998 82.7695 939.118 83.4574C928.865 84.6574 928.409 84.8726 927.977 88.7081C927.613 91.921 928.282 93.0002 931.381 94.2016C933.502 95.0248 934.95 95.9906 934.599 96.3498C934.247 96.7076 930.939 95.8306 927.244 94.3994C923.551 92.9682 920.999 91.3174 921.575 90.7312C922.15 90.1436 921.04 90.2847 919.109 91.0454C917.179 91.8061 915.759 93.1456 915.955 94.0227C916.151 94.8997 915.275 95.6168 914.006 95.6168C912.404 95.6168 911.929 96.5026 912.448 98.5257C912.857 100.126 912.612 101.435 911.901 101.435C911.191 101.435 910.609 98.8166 910.609 95.6168C910.609 92.417 909.968 89.7989 909.184 89.7989C908.4 89.7989 907.758 90.593 907.758 91.5617C907.758 92.5318 906.046 94.7179 903.954 96.4211C900.35 99.3533 900.271 99.6893 902.423 102.827C904.208 105.426 904.362 106.883 903.141 109.616C902.031 112.103 902.024 114.025 903.119 116.356C906.359 123.258 906.229 124.588 901.884 129.022C896.491 134.525 893.054 134.896 898.067 129.433C902.99 124.068 904.27 119.508 901.192 118.302C899.259 117.546 898.968 116.061 899.634 110.33C900.101 106.306 899.829 102.652 898.999 101.806C898.013 100.799 898.114 99.3955 899.314 97.4349C901.663 93.5965 900.073 89.8265 896.043 89.684C894.255 89.6215 893.597 89.2375 894.582 88.8331C897.28 87.7234 895.209 85.4355 891.506 85.4355C889.178 85.4355 887.478 86.9889 885.535 90.8898C884.041 93.8903 881.534 97.4523 879.966 98.8064C876.85 101.493 875.652 113.07 878.487 113.07C880.586 113.07 885.123 118.609 883.74 119.48C883.137 119.861 878.681 118.248 873.839 115.895C868.997 113.542 862.755 111.616 859.967 111.616C856.857 111.616 853.708 110.484 851.815 108.685C848.616 105.644 846.317 105.523 845.395 108.349C845.1 109.252 846.823 111.028 849.225 112.295C854.114 114.875 854.577 116.244 851.454 118.888C849.693 120.379 849.316 120.253 849.316 118.17C849.316 116.215 848.586 115.87 846.109 116.654C844.346 117.213 841.298 117.992 839.338 118.388C837.378 118.784 834.332 119.822 832.57 120.696C828.673 122.629 826.863 121.231 829.332 118.196C831.688 115.299 830.012 115.4 820.675 118.718C809.252 122.778 805.128 124.965 805.128 126.966C805.128 129.919 800.835 130.677 797.529 128.306L794.437 126.089L797.645 125.228C801.05 124.313 801.442 123.511 799.761 120.894C798.541 118.994 788.023 117.459 788.023 119.181C788.023 119.819 788.503 120.343 789.092 120.344C789.681 120.346 790.257 123.582 790.374 127.538C790.569 134.162 790.381 134.598 787.982 133.069C785.921 131.756 784.287 132 780.168 134.239C773.681 137.763 773.04 138.778 775.428 141.741C777.131 143.854 776.879 144.005 773.056 143.168C770.704 142.651 767.336 141.811 765.573 141.297C761.609 140.147 761.051 144.144 764.86 146.407C767.008 147.684 767.037 147.895 765.068 147.934C761.403 148.004 755.123 141.252 756.196 138.396C756.785 136.831 756.126 135.142 754.4 133.799C751.736 131.725 751.739 131.696 754.526 132.489C768.526 136.477 770.599 136.633 775.841 134.095C780.072 132.045 780.966 130.886 780.615 127.905C780.274 125.013 778.223 123.231 770.918 119.485C765.822 116.871 759.476 114.311 756.815 113.796C754.155 113.281 751.083 111.948 749.99 110.831C748.761 109.578 746.251 109.068 743.423 109.497C740.906 109.878 739.649 109.802 740.628 109.327C744.311 107.543 742.187 104.658 735.861 102.851C731.136 101.502 729.041 101.427 728.339 102.585C727.711 103.624 726.627 103.712 725.268 102.835C722.465 101.026 716.752 101.064 716.752 102.889C716.752 103.689 715.79 104.344 714.614 104.344C713.438 104.344 712.476 104.998 712.476 105.798C712.476 106.598 710.911 107.253 708.996 107.253C707.082 107.253 705.105 107.933 704.6 108.767C704.096 109.599 702.568 109.919 701.204 109.476C698.219 108.509 689.678 112.588 689.648 114.995C689.632 116.243 689.323 116.221 688.51 114.916C687.701 113.616 686.15 114.285 682.848 117.363C678.575 121.345 678.485 121.627 681.355 122.062C684.356 122.517 684.344 122.6 680.623 127.097C678.542 129.614 676.84 132.394 676.84 133.279C676.84 134.163 676.199 134.887 675.415 134.887C674.631 134.887 673.989 135.831 673.989 136.986C673.989 138.141 672.564 140.105 670.821 141.35C669.079 142.595 668.209 143.614 668.888 143.614C669.568 143.614 667.183 145.905 663.59 148.705C659.996 151.505 656.596 153.796 656.035 153.796C655.475 153.796 652.992 155.371 650.517 157.296C646.302 160.576 646.053 161.285 646.549 168.537C646.839 172.792 647.84 176.77 648.774 177.377C649.706 177.982 649.91 178.487 649.227 178.5C648.543 178.511 648.781 179.503 649.757 180.703C651.743 183.145 660.512 183.678 661.869 181.438C662.351 180.642 663.969 179.323 665.464 178.507C667.847 177.205 668.63 177.985 671.799 184.821C676.091 194.077 676.175 194.726 672.92 193.457C668.913 191.897 667.246 189.702 667.957 186.928C668.39 185.234 667.823 184.339 666.316 184.339C665.048 184.339 664.011 184.994 664.011 185.794C664.011 186.594 662.65 187.248 660.985 187.248C658.126 187.248 658.009 187.756 658.843 196.518L659.725 205.787L654.284 206.674C650.357 207.314 647.411 209.189 643.702 213.404C638.706 219.084 635.101 220.657 633.426 217.893C632.974 217.148 633.258 216.128 634.055 215.625C636.571 214.038 635.623 210.52 632.679 210.52C630.852 210.52 629.538 209.23 628.956 206.865C628.463 204.855 627.327 202.728 626.435 202.138C623.264 200.043 618.418 191.77 619.836 190.876C620.613 190.386 621.249 188.716 621.249 187.162C621.249 185.08 620.22 184.309 617.329 184.224C615.174 184.162 614.212 183.779 615.191 183.377C616.171 182.972 616.973 182.043 616.973 181.31C616.973 179.486 608.808 179.614 607.693 181.454C607.2 182.267 606.101 182.494 605.25 181.957C604.278 181.343 604.118 181.666 604.819 182.822C605.468 183.894 605.113 185.205 603.97 185.957C602.697 186.795 602.517 187.632 603.462 188.339C604.262 188.938 604.976 191.218 605.048 193.402C605.157 196.813 604.485 197.505 600.27 198.312C597.571 198.829 595.05 200.085 594.666 201.106C594.283 202.126 592.682 203.304 591.11 203.723C588.672 204.375 588.491 204.945 589.882 207.596C591.117 209.951 591.1 211.212 589.814 212.795C588.498 214.412 588.503 215.359 589.831 216.994C591.324 218.828 592.418 218.756 598.203 216.448C603.71 214.249 604.939 213.071 605.338 209.609C605.605 207.311 606.484 204.612 607.295 203.611C609.043 201.456 611.831 201.144 610.558 203.247C610.074 204.047 610.303 204.702 611.069 204.702C611.833 204.702 612.696 203.976 612.986 203.087C613.318 202.074 614.214 202.336 615.397 203.791C617.021 205.786 616.769 206.308 613.591 207.54C611.252 208.447 610.186 209.734 610.682 211.054C611.113 212.198 610.753 213.583 609.884 214.131C609.016 214.68 608.704 216.413 609.193 217.984C609.682 219.555 609.355 221.732 608.468 222.823C607.446 224.078 607.368 225.128 608.252 225.686C609.02 226.17 610.034 225.93 610.505 225.152C610.977 224.374 612.304 224.106 613.455 224.557C614.605 225.006 615.547 224.758 615.547 224.001C615.547 223.245 618.593 222.512 622.318 222.369C626.043 222.228 630.212 221.751 631.583 221.309C634.939 220.227 634.723 221.428 630.91 225.053C628.608 227.242 626.664 227.821 623.785 227.176C620.632 226.47 619.995 226.737 620.654 228.491C621.29 230.18 620.214 230.799 616.032 231.151C608.667 231.771 607.566 236.132 614.442 237.448C620.024 238.517 623.123 244.002 622.412 251.55L621.962 256.336L611.984 255.904C606.496 255.667 600.081 255.829 597.729 256.266L595.417 257.476L593.992 259.657L593.611 268.333C593.871 286.943 593.992 284.383 598.392 286.152C606.972 286.152 606.534 295.749 597.729 300.692C594.434 302.544 593.058 304.737 591.73 310.259C590.551 315.159 588.761 318.342 586.069 320.332C580.177 324.687 571.359 333.824 571.359 335.576C571.359 336.423 569.69 339.815 567.65 343.112C564.111 348.833 564.017 349.502 565.598 357.703C566.843 364.164 566.852 367.547 565.629 371.326C564.735 374.092 564.35 378.803 564.777 381.797C565.201 384.788 565.573 387.728 565.603 388.329C565.633 388.929 566.319 389.419 567.127 389.419C568.852 389.419 577.062 398.682 579.18 403.019C579.987 404.671 583.209 407.869 586.337 410.128C589.468 412.387 593.446 415.255 595.181 416.503C597.771 418.366 599.216 418.474 603.279 417.105C605.997 416.19 611.314 415.588 615.092 415.767C619.283 415.968 625.518 414.83 631.08 412.851C638.612 410.172 640.884 409.895 644.13 411.268C646.292 412.182 648.386 414.201 648.785 415.757C649.399 418.157 650.346 418.448 655.047 417.68C663.192 416.35 664.751 418.9 662.778 430.322C661.108 440 661.122 440.054 667.261 447.601C671.375 452.657 675.382 461.651 676.011 467.234C676.19 468.833 676.837 471.926 677.447 474.104C678.24 476.939 677.721 479.835 675.622 484.286C670.27 495.623 670.306 500.881 675.812 512.322C678.723 518.368 681.088 525.886 681.637 530.832C682.248 536.36 684.305 542.402 687.75 548.797C690.842 554.537 693.072 560.792 693.264 564.268C693.64 571.096 695.878 573.096 701.785 571.885C704.137 571.403 710.446 570.414 715.806 569.688C726.682 568.214 731.79 564.875 738.47 554.874C740.615 551.663 743.358 548.297 744.565 547.397C745.772 546.496 746.987 543.174 747.265 540.017C747.684 535.247 748.525 533.908 752.217 532.125C756.268 530.167 756.655 529.383 756.564 523.331C756.508 519.676 755.962 515.376 755.35 513.777C754.476 511.493 755.11 510.325 758.302 508.344C760.537 506.955 762.365 505.255 762.365 504.565C762.365 503.874 764.802 502.189 767.778 500.819C770.755 499.45 774.065 496.899 775.134 495.152C777.593 491.135 777.161 477.611 774.399 472.161C773.269 469.93 772.343 466.24 772.343 463.961C772.343 461.68 771.746 459.193 771.016 458.434C768.448 455.758 775.047 445.201 785.815 434.764C791.738 429.023 797.238 424.327 798.037 424.327C800.772 424.327 815.414 399.324 816.205 393.301C816.938 387.731 816.837 387.55 813.542 388.585C811.658 389.177 806.91 390.238 802.99 390.947C799.07 391.653 794.446 392.587 792.713 393.021C788.522 394.069 785.007 388.403 789.031 387.084C790.436 386.624 792.87 385.705 794.437 385.043C796.005 384.381 802.099 382.022 807.979 379.801C813.859 377.58 819.841 374.555 821.274 373.079C822.705 371.602 825.753 370.011 828.045 369.544C830.335 369.076 832.211 368.12 832.211 367.421C832.211 366.721 833.014 366.126 833.993 366.1C836.328 366.036 842.189 361.017 842.189 359.081C842.189 358.25 843.793 355.805 845.753 353.647C847.713 351.49 849.316 348.939 849.316 347.98C849.316 345.926 844.741 341.422 842.654 341.422C840.41 341.422 836.487 336.397 836.487 333.521C836.487 331.421 835.528 331.798 831.356 335.536C824.8 341.41 818.899 341.278 818.219 335.24C817.749 331.071 815.863 329.926 814.624 333.059C814.229 334.059 813.855 333.405 813.793 331.604C813.732 329.804 813.053 328.332 812.288 328.332C809.774 328.332 806.278 321.327 807.243 318.223C807.986 315.835 808.699 315.532 810.828 316.696C812.291 317.495 813.895 319.455 814.392 321.054C815.793 325.56 827.12 331.693 832.54 330.881C835.912 330.377 837.673 330.959 839.414 333.152C841.512 335.796 843.475 336.113 858.362 336.216C867.496 336.279 874.969 336.766 874.971 337.299C874.972 337.831 876.898 340.12 879.25 342.385C881.602 344.649 883.526 347.222 883.526 348.101C883.526 351.465 889.077 354.906 893.159 354.073C897.098 353.27 897.175 353.385 897.478 360.518C897.649 364.512 899.069 370.65 900.636 374.156C902.201 377.663 903.482 381.069 903.482 381.725C903.482 382.381 904.671 385.199 906.123 387.987C907.576 390.775 909.55 395.511 910.509 398.51C912.611 405.074 915.657 405.534 920.125 399.964L923.335 395.965L923.387 403.646C923.442 411.862 925.826 414.647 929.871 411.221C932.803 408.738 932.539 406.651 928.535 400.629C925.572 396.173 925.14 394.026 925.495 385.519C925.834 377.376 926.41 375.339 928.713 374.133C932.799 371.995 950.521 355.158 950.521 353.416C950.521 352.601 953.408 351.491 956.935 350.952C960.463 350.412 963.35 349.356 963.35 348.606C963.35 347.854 963.991 347.24 964.775 347.24C965.559 347.24 966.201 348.753 966.201 350.601C966.201 352.451 967.324 355.266 968.695 356.857C973.12 361.99 974.819 366.104 973.958 369.605C972.939 373.746 976.388 375.641 980.68 373.297C982.258 372.436 983.661 371.947 983.795 372.212C986.523 377.564 988.484 387.841 988.018 394.33C987.539 400.982 987.965 402.937 990.558 405.98C993.529 409.466 999.379 424.41 998.231 425.58C997.931 425.887 995.395 423.934 992.595 421.24C987.918 416.739 977.976 411.827 976.529 413.303C975.597 414.254 977.804 417.677 983.306 423.816C989.428 430.645 996.073 440.466 996.109 442.736C996.149 445.361 1010.38 457.779 1013.35 457.779C1015.04 457.779 1015.72 458.52 1015.24 459.816C1014.26 462.4 1019.69 464.24 1037.47 467.347C1052.68 470.004 1063.78 470.682 1065.38 469.052C1067.34 467.059 1064.55 465.939 1057.21 465.769C1052.1 465.651 1049.41 464.853 1048.14 463.08C1046.86 461.298 1043.67 460.364 1037.27 459.894C1032.28 459.528 1025.8 458.831 1022.86 458.345C1017.94 457.531 1017.52 457.083 1017.52 452.651C1017.52 450.005 1018.25 447.591 1019.15 447.287C1020.35 446.875 1020.33 445.885 1019.06 443.459C1017.92 441.284 1016.5 440.46 1014.83 441.001C1013.07 441.568 1011.7 440.609 1010.28 437.824C1009.16 435.629 1006.65 432.307 1004.69 430.443L1001.12 427.051L1004.98 429.451C1010.27 432.738 1012.37 431.09 1009.67 425.771C1008.5 423.455 1007.54 419.952 1007.54 417.984C1007.54 414.897 1002.16 408.527 997.969 406.649C997.352 406.373 995.727 403.97 994.359 401.311C992.543 397.783 992.253 395.746 993.289 393.771C994.07 392.283 994.709 389.386 994.709 387.334C994.709 385.282 995.057 383.602 995.482 383.602C997.938 383.602 1011.81 397.863 1011.81 400.386C1011.81 403.454 1014.3 402.998 1018.09 399.237C1019.9 397.436 1023.24 394.849 1025.51 393.486C1029.21 391.265 1029.63 390.251 1029.57 383.686C1029.52 377.632 1028.77 375.542 1025.25 371.62C1015.43 360.681 1015.67 361.444 1020.32 356.253C1024.88 351.163 1029.85 350.147 1030.63 354.149C1030.9 355.549 1029.89 357.734 1028.37 359.004C1025.25 361.62 1026.31 364.693 1030.34 364.693C1033.68 364.693 1035.21 362.278 1035.28 356.914C1035.33 353.293 1036.24 352.418 1042.46 350.005C1046.38 348.485 1050.69 347.241 1052.04 347.241C1055.42 347.24 1067.2 338.562 1068.2 335.334C1068.65 333.883 1071.22 329.359 1073.92 325.277C1078.7 318.028 1080.14 314.229 1077.48 315.906C1076.75 316.367 1075.75 316.078 1075.26 315.265C1074.77 314.452 1075.04 313.787 1075.87 313.787C1078.14 313.787 1077.69 308.584 1075.25 306.515C1074.07 305.518 1073.11 303.828 1073.11 302.758C1073.11 301.686 1071.83 299.593 1070.26 298.104C1067.42 295.407 1067.43 295.385 1071.16 292.072C1073.22 290.244 1075.91 288.597 1077.14 288.414C1078.36 288.231 1079.59 287.397 1079.86 286.562C1080.5 284.626 1073.72 282.848 1070.14 284.01C1068.63 284.496 1067.41 284.272 1067.41 283.511C1067.41 282.75 1066.12 281.786 1064.55 281.367C1062.99 280.95 1061.7 279.782 1061.7 278.774C1061.7 277.766 1062.13 277.379 1062.66 277.916C1063.77 279.054 1070.45 274.951 1072.11 272.106C1072.74 271.032 1074.26 270.153 1075.49 270.153C1077.38 270.153 1077.44 270.515 1075.84 272.477C1074 274.743 1072.51 280.334 1073.75 280.334C1074.09 280.334 1076.57 279.012 1079.25 277.396C1085.2 273.814 1089.12 274.828 1087.94 279.641C1087.27 282.366 1087.74 283.099 1090.44 283.489C1094.03 284.007 1094.5 286.184 1092.86 294.555L1091.92 299.319L1097.12 298.351C1099.99 297.817 1103.72 296.853 1105.43 296.208C1108.5 295.043 1108.51 294.987 1106.03 288.33C1104.66 284.641 1102.49 280.376 1101.21 278.852C1099.02 276.244 1099.13 275.901 1103.1 273.018C1105.42 271.334 1107.32 268.674 1107.32 267.109C1107.32 263.748 1113.28 260.846 1119.19 261.335C1123.74 261.713 1130.27 255.518 1141.02 240.619C1145.76 234.056 1147.23 230.718 1147.23 226.536C1147.23 221.021 1150.4 216.243 1152.15 219.127C1152.64 219.94 1152.59 226.68 1152.05 234.107C1151.11 246.818 1151.19 247.487 1153.52 245.52C1155.67 243.706 1156.17 243.706 1157.29 245.52C1158.35 247.226 1158.59 247.133 1158.61 245.013C1158.62 243.584 1157.71 240.966 1156.59 239.195C1154.83 236.424 1154.82 235.586 1156.54 233.212C1158.2 230.929 1158.92 230.77 1160.73 232.299C1163.47 234.623 1163.45 233.272 1160.59 225.064C1159.34 221.465 1157.9 215.301 1157.4 211.366C1156.87 207.173 1155.66 203.931 1154.49 203.531C1153.1 203.063 1152.76 203.595 1153.37 205.231C1153.86 206.54 1153.64 207.611 1152.89 207.611C1152.13 207.611 1151.45 208.756 1151.39 210.156C1151.3 212.162 1151.1 212.245 1150.45 210.546C1148.42 205.265 1142.24 202.299 1138.97 205.041C1137.06 206.645 1136.9 206.364 1137.75 202.884C1138.7 199.006 1136.94 197.315 1135.11 200.339C1134.63 201.138 1132.86 201.793 1131.19 201.793C1128.42 201.793 1128.53 201.495 1132.34 198.512C1134.65 196.707 1138.3 193.599 1140.46 191.603C1142.62 189.607 1147.11 185.494 1150.44 182.462L1156.49 176.949L1167.6 177.499C1173.71 177.802 1179.04 177.502 1179.44 176.831C1180.61 174.914 1183.88 175.403 1186.28 177.851C1187.96 179.569 1190.14 179.863 1195.65 179.118C1202.58 178.18 1204.73 176.599 1201.04 175.163C1198.92 174.338 1209 165.126 1213.42 163.858C1217.42 162.707 1219.91 163.785 1218.97 166.266C1217.64 169.824 1222.69 170.388 1226.15 167.07C1227.92 165.369 1230.13 163.977 1231.06 163.977C1231.99 163.977 1232.75 162.995 1232.75 161.795C1232.75 160.595 1233.36 159.613 1234.11 159.613C1234.93 159.613 1234.87 161.328 1233.97 163.977C1233.15 166.377 1231.72 168.34 1230.8 168.34C1229.89 168.34 1225.3 171.934 1220.61 176.328C1215.92 180.721 1211.12 184.329 1209.95 184.344C1208.77 184.36 1206.62 186.912 1205.16 190.018C1202.39 195.926 1202.65 205.361 1205.89 216.005C1207.16 220.192 1206.94 221.103 1204.01 223.593C1201.66 225.592 1201.31 226.436 1202.82 226.468C1205.09 226.517 1215.65 215.877 1215.65 213.545C1215.65 212.789 1216.94 211.752 1218.52 211.24C1220.1 210.729 1221.01 209.675 1220.54 208.897C1219.18 206.661 1222.8 203.247 1226.51 203.247C1230.26 203.247 1230.82 201.853 1228.15 199.127C1226.75 197.706 1227.03 197.163 1229.48 196.509C1232 195.835 1232.56 194.643 1232.49 190.012C1232.44 185.913 1231.81 184.339 1230.23 184.339C1228.27 184.339 1228.27 184.063 1230.18 181.794C1231.36 180.393 1232.72 178.104 1233.21 176.703C1233.74 175.173 1235.67 174.091 1238.06 173.991C1242.79 173.79 1243.65 173.637 1249.01 172.049C1251.7 171.252 1254.08 171.421 1255.82 172.531C1258.04 173.944 1259.3 173.613 1263.16 170.609C1270.39 164.983 1284.12 159.291 1288.78 159.989C1291.44 160.387 1293.16 159.881 1293.66 158.556C1294.43 156.491 1291.56 149.499 1289.23 147.773C1288.53 147.259 1289.97 146.391 1292.42 145.841C1295.87 145.069 1297.14 143.802 1298.07 140.228C1299.15 136.093 1299.38 135.933 1300.26 138.679C1301.02 141.059 1302.08 141.581 1304.99 141.012C1307.36 140.551 1309.33 141.079 1310.31 142.436C1312.57 145.568 1317.55 147.978 1321.75 147.978C1324.7 147.978 1325.41 147.275 1325.41 144.341C1325.41 141.866 1326.2 140.691 1327.9 140.659C1329.27 140.634 1331.5 139.758 1332.84 138.716C1335.09 136.973 1334.94 136.553 1330.98 133.567C1328.61 131.778 1324.3 129.945 1321.41 129.496C1318.51 129.045 1315.18 127.855 1314 126.853C1310.97 124.265 1292.86 115.229 1286.92 113.339C1284.18 112.467 1277.03 111.344 1271.04 110.844C1259.77 109.903 1256.51 111.161 1259.78 115.187C1261 116.68 1260.96 117.451 1259.63 118.289C1258.65 118.913 1257.62 118.648 1257.31 117.691C1257 116.75 1255.72 115.979 1254.46 115.979C1252.57 115.979 1252.66 115.61 1254.93 113.901C1257.57 111.92 1257.58 111.776 1255.11 110.8C1253.68 110.236 1251.12 110.512 1249.41 111.412C1247.58 112.377 1241.36 112.854 1234.3 112.572C1223.49 112.138 1222.18 111.776 1221.15 108.924C1219.42 104.136 1213.49 102.515 1201.75 103.619C1195.34 104.223 1191.42 104.054 1191.42 103.176C1191.42 102.396 1189.06 101.307 1186.17 100.754C1182.92 100.133 1181.59 99.3286 1182.68 98.645C1185.5 96.8604 1181.67 94.7005 1173.6 93.5325C1151.24 90.2934 1148.54 90.1247 1145.15 91.7566C1142.66 92.9522 1141.86 94.2729 1142.37 96.344C1143.03 99.0624 1142.4 99.2442 1132.68 99.1206C1126.96 99.0464 1121.04 98.4385 1119.52 97.7679C1117.82 97.0189 1116.56 97.1309 1116.26 98.0574C1115.99 98.8879 1114.96 100.693 1113.98 102.069C1112.29 104.418 1111.97 104.396 1108.74 101.721C1106.37 99.7635 1105.18 97.1542 1104.94 93.3725C1104.56 87.2303 1102.79 85.4908 1096.89 85.4573C1094.68 85.4457 1091.74 84.8144 1090.35 84.0552C1087.18 82.3244 1081.66 83.6945 1081.66 86.2107C1081.66 88.7473 1079.94 89.1837 1072.37 88.5699C1068.19 88.231 1065.98 87.3685 1065.98 86.0798C1065.98 84.6414 1063.19 83.9927 1055.65 83.6814C1045.89 83.2771 1045.33 83.072 1045.65 79.9812C1045.88 77.8068 1045.23 76.7087 1043.71 76.7087C1041.97 76.7087 1042.19 76.0847 1044.66 74.0456C1047.17 71.9686 1047.67 70.5141 1046.91 67.4408C1046.38 65.2737 1045.32 63.8919 1044.56 64.3719C1043.8 64.8519 1043.17 64.6148 1043.17 63.8468C1043.17 61.3262 1035.36 59.6012 1028.65 60.6412C1023.48 61.4411 1022.23 61.2477 1022.8 59.7307C1023.26 58.4929 1022.41 57.8006 1020.44 57.8006C1018.74 57.8006 1017.74 57.1461 1018.23 56.3432C1019.08 54.944 1013.44 51.9798 1009.94 51.9856C1009.01 51.9856 1006.01 53.1318 1003.26 54.531ZM185.606 54.48C181.708 54.8524 178.623 56.24 176.449 58.602C174.646 60.5612 171.999 62.164 170.568 62.164C168.907 62.164 167.965 63.2272 167.965 65.1006C167.965 67.4786 168.619 67.8699 171.407 67.1557C173.43 66.638 177.038 67.3332 180.151 68.84C185.282 71.3257 185.512 71.317 187.351 68.6029C190.24 64.337 191.902 62.5116 193.407 61.9487C194.16 61.6666 194.998 59.8165 195.269 57.837C195.812 53.8619 195.007 53.5826 185.606 54.48ZM216.642 60.2688C215.838 61.7349 215.795 64.0984 216.536 66.0867C218.153 70.4254 214.756 70.6697 210.4 66.5274C208.716 64.9275 206.215 63.6185 204.841 63.6185C201.738 63.6185 200.1 61.2186 202.523 60.2208C203.847 59.6769 203.802 59.4543 202.343 59.37C199.641 59.2129 191.231 64.6657 190.28 67.1907C189.855 68.3222 190.273 69.5658 191.208 69.9541C192.144 70.3439 191.788 70.7134 190.415 70.7759C189.043 70.8385 187.921 71.4697 187.921 72.1751C187.921 74.1256 195.186 75.1277 198.895 73.6892C200.928 72.9009 202.175 72.9562 202.175 73.8361C202.175 74.6157 201.534 75.2542 200.75 75.2542C199.966 75.2542 199.324 75.9087 199.324 76.7087C199.324 78.7769 206.695 78.345 220.706 75.4535C232.274 73.0667 232.843 72.7671 233.291 68.8211C233.72 65.0395 233.435 64.753 229.922 65.438C226.798 66.0474 225.649 65.4089 223.75 62.0026C221.106 57.2595 218.624 56.6545 216.642 60.2688ZM874.261 60.1161C871.909 61.38 866.457 62.7734 862.145 63.2127C857.833 63.6534 853.664 64.5028 852.88 65.102C852.096 65.7013 849.414 66.6365 846.92 67.1805C844.427 67.7244 841.622 69.1091 840.688 70.2567C839.753 71.4057 838.105 72.3453 837.026 72.3453C835.946 72.3453 835.062 73.3009 835.062 74.4688C835.062 75.6353 833.304 78.2533 831.156 80.2867C829.008 82.3186 827.812 83.981 828.498 83.981C829.184 83.981 828.049 85.3424 825.975 87.0063C823.902 88.6702 822.5 90.5174 822.859 91.1108C823.218 91.7043 822.235 93.3056 820.674 94.6685C817.253 97.6589 818.282 99.9802 823.03 99.9802C825.559 99.9802 826.509 100.774 826.509 102.889C826.509 104.65 827.494 105.84 829.004 105.903C830.375 105.961 833.904 106.125 836.845 106.266C839.784 106.409 842.19 106.293 842.19 106.008C842.189 105.724 840.585 103.547 838.626 101.17C836.666 98.7933 835.062 95.9149 835.062 94.7732C835.062 92.5231 848.003 78.1632 850.032 78.1632C850.713 78.1632 852.642 76.8483 854.318 75.2411C855.996 73.6339 863.093 70.6392 870.09 68.5869C883.107 64.7675 887.456 62.2149 885.749 59.3947C884.37 57.1185 879.24 57.4413 874.261 60.1161ZM236.385 62.8636C236.385 65.4991 237.346 66.7179 239.949 67.3841C241.909 67.8859 243.512 68.7906 243.512 69.3927C243.512 69.9949 245.107 70.1767 247.059 69.7956C249.458 69.3273 250.889 69.864 251.488 71.4522C252.587 74.3772 262.81 74.7379 263.882 71.89C264.912 69.1484 263.413 62.3007 261.52 61.1066C258.857 59.4281 248.641 59.3831 246.682 61.0426C245.384 62.1422 243.813 62.1073 241.264 60.9233C236.459 58.6893 236.385 58.7184 236.385 62.8636ZM557.105 62.1189C557.105 63.9966 556.369 64.7471 554.967 64.3006C553.791 63.9254 551.825 63.2956 550.601 62.9014C547.374 61.8629 549.539 59.2551 553.625 59.2551C556.136 59.2551 557.105 60.0521 557.105 62.1189ZM1178.32 61.7029C1179.35 62.1233 1180.58 62.0709 1181.05 61.588C1181.53 61.1052 1180.69 60.7619 1179.18 60.8244C1177.52 60.8943 1177.18 61.239 1178.32 61.7029ZM186.495 63.5676C186.495 64.3384 185.213 65.6707 183.645 66.5274C180.403 68.2975 179.954 67.3783 182.576 64.3399C184.655 61.9284 186.495 61.5662 186.495 63.5676ZM269.17 68.8749C265.682 72.4224 265.665 72.5446 268.373 74.6041C272.093 77.4345 277.208 77.2672 278.331 74.2797C279.159 72.0777 277.155 69.5149 274.559 69.4582C273.996 69.4465 273.905 68.4546 274.356 67.2546C275.571 64.0228 273.214 64.7588 269.17 68.8749ZM1136.11 66.8183C1132.13 70.8792 1135.63 77.0563 1141.85 76.9647C1153.7 76.7887 1162.25 75.2324 1163.88 72.9533C1166.05 69.9309 1165.1 67.9819 1161.47 67.9819C1159.98 67.9819 1157.15 67.2314 1155.18 66.3136C1152.39 65.0177 1151.09 65.0686 1149.35 66.5434C1147.65 67.9804 1146.71 68.0313 1145.46 66.7572C1143.31 64.5668 1138.28 64.6002 1136.11 66.8183ZM1128.7 70.2494C1128.7 71.4959 1129.34 72.1126 1130.12 71.6181C1130.91 71.1235 1131.55 70.104 1131.55 69.3505C1131.55 68.5971 1130.91 67.9819 1130.12 67.9819C1129.34 67.9819 1128.7 69.0029 1128.7 70.2494ZM235.94 70.3759C234.08 72.2726 234.968 73.7998 237.929 73.7998C239.588 73.7998 240.65 73.0376 240.335 72.0733C239.641 69.9469 237.26 69.0276 235.94 70.3759ZM1168.18 70.3614C1166.16 72.418 1167.31 73.7227 1172.56 75.3255C1178.75 77.2178 1185.97 76.7247 1186.73 74.3583C1187.04 73.3838 1184.37 72.3453 1180.05 71.7606C1176.09 71.2239 1172.02 70.4617 1171.01 70.0661C1170 69.6705 1168.73 69.8029 1168.18 70.3614ZM164.088 77.8694C161.883 78.5806 161.287 79.4867 162.124 80.8568C162.886 82.1077 162.032 85.1853 159.78 89.2971C157.83 92.8562 156.469 95.9426 156.754 96.1564C165.435 102.649 176.175 103.808 177.562 98.4006C177.936 96.9447 179.825 94.6932 181.76 93.4002C185.194 91.1036 185.24 91.1225 183.633 94.1841C182.728 95.9091 182.201 97.4945 182.46 97.7083C182.72 97.9221 184.215 98.8282 185.783 99.7213C187.351 100.616 187.833 101.366 186.852 101.391C183.78 101.467 184.913 105.416 188.277 106.355C190.98 107.111 191.148 107.491 189.346 108.771C187.515 110.071 187.669 110.618 190.415 112.585C192.18 113.847 193.623 115.384 193.623 116.003C193.623 117.376 183.156 114.977 177.015 112.196C171.541 109.716 169.053 109.633 166.872 111.859C165.603 113.153 164.99 112.98 164.296 111.132C163.073 107.881 157.987 107.965 157.987 111.238C157.987 113.259 157.26 112.969 154.366 109.783C150.629 105.67 146.311 104.411 146.94 107.616C147.174 108.812 145.891 109.282 143.195 108.986C140.94 108.74 136.567 109.571 133.48 110.832C130.392 112.092 127.315 112.777 126.641 112.352C124.909 111.258 118.007 114.691 118.916 116.192C120.269 118.426 116.038 117.486 111.205 114.478C108.602 112.86 105.715 111.662 104.79 111.818C103.865 111.974 100.863 111.703 98.1194 111.215C89.8021 109.735 70.6373 106.949 65.3347 106.445C62.5908 106.186 57.4593 105.208 53.9313 104.272C43.6968 101.56 29.8945 102.78 26.7243 106.678C25.8163 107.794 23.9134 108.707 22.4951 108.707C21.0754 108.707 18.5453 110.671 16.8704 113.07C14.718 116.155 12.6455 117.434 9.79889 117.434C5.83907 117.434 2.23133 121.909 5.33875 122.965C6.14126 123.239 9.09331 125.051 11.8971 126.993C14.7023 128.936 17.4563 130.524 18.0164 130.524C18.5766 130.524 19.8367 131.833 20.816 133.433C22.4181 136.051 22.24 136.342 19.0199 136.342C16.9132 136.342 15.445 135.51 15.445 134.313C15.445 132.038 8.65428 133.045 2.93834 136.166C-0.985841 138.31 -0.984416 138.56 2.97255 142.877C5.42998 145.557 7.86745 146.45 13.4066 146.696C17.3807 146.874 21.322 146.584 22.1658 146.052C23.9319 144.938 25.8577 148.993 24.5705 151.116C24.0973 151.899 22.8329 152.196 21.761 151.777C20.6891 151.356 19.4846 151.556 19.0841 152.217C18.6835 152.878 16.3744 153.825 13.9554 154.318C11.508 154.817 9.94999 155.87 10.446 156.687C10.9364 157.497 10.6798 158.159 9.87729 158.159C7.17897 158.159 5.30311 163.586 7.25167 165.756C8.2295 166.845 9.73617 169.017 10.6 170.583C11.5194 172.253 14.0253 173.62 16.658 173.886C20.4012 174.267 21.1467 174.958 21.1467 178.049C21.1467 181.496 21.4945 181.688 26.1356 180.799C29.2987 180.194 31.1246 180.411 31.1246 181.393C31.1246 182.306 32.5458 182.577 34.5884 182.053C37.6003 181.282 37.9467 181.577 37.2454 184.313C36.4614 187.375 30.1767 192.108 22.2157 195.632C18.454 197.297 16.8091 200.339 19.6714 200.339C24.5663 200.339 40.2459 192.78 43.9534 188.633C44.3454 188.194 46.7914 186.32 49.39 184.469C52.3021 182.39 53.8102 180.296 53.3227 179.001C52.7311 177.429 58.5226 169.795 60.3073 169.795C60.4484 169.795 60.2759 171.8 59.9238 174.253L59.2824 178.711L64.803 176.231C67.8392 174.866 71.3315 173.701 72.5616 173.642C74.0868 173.569 74.6085 172.506 74.1951 170.307C73.692 167.619 74.0982 167.214 76.6198 167.888C79.1627 168.566 79.358 169.056 77.8371 170.938C76.2648 172.883 76.4031 172.98 78.8762 171.669C80.4926 170.814 82.9615 170.666 84.5779 171.329C86.1459 171.973 89.4956 172.545 92.02 172.602C98.6012 172.747 110.888 178.716 116.294 184.392C118.841 187.066 120.926 189.749 120.926 190.351C120.926 190.954 122.85 192.607 125.202 194.025C127.554 195.443 129.479 197.77 129.479 199.198C129.479 200.868 130.551 201.793 132.482 201.793C134.586 201.793 135.236 201.13 134.652 199.578C133.98 197.789 134.345 197.649 136.547 198.852C138.181 199.744 139.455 202.24 139.723 205.067C140.04 208.425 140.859 209.74 142.551 209.609C144.148 209.487 144.654 210.169 144.085 211.68C143.475 213.304 143.874 213.685 145.515 213.042C147.138 212.406 148.209 213.376 149.251 216.426C150.429 219.875 150.313 220.701 148.648 220.701C147.513 220.701 146.584 221.116 146.584 221.623C146.584 223.052 154.126 229.348 156.942 230.27C161.839 231.873 163.867 240.515 163.187 256.887C162.598 271.094 162.789 272.464 166.232 278.734C168.252 282.414 170.591 286.735 171.429 288.337C174.794 294.763 177.51 297.564 182.396 299.647C186.156 301.251 188.37 303.635 190.743 308.635C192.519 312.379 195.602 317.419 197.595 319.835C200.388 323.222 200.791 324.498 199.354 325.404C198.019 326.246 199.152 327.648 203.355 330.355C206.902 332.64 208.927 334.909 208.48 336.097C207.844 337.789 216.091 345.785 218.472 345.785C220.029 345.785 219.263 341.556 217.498 340.404C216.519 339.764 214.603 336.949 213.242 334.15C211.882 331.35 209.76 327.648 208.527 325.925C204.585 320.417 208.805 320.799 213.078 326.338C215.313 329.235 219.783 334.305 223.012 337.604C230.909 345.676 233.962 350.847 232.882 354.322C231.688 358.156 237.893 362.81 253.389 369.7C262.922 373.938 266.486 374.856 270.637 374.14C274.946 373.397 276.639 373.902 280.25 377.003C282.66 379.072 287.655 381.693 291.349 382.828C298.184 384.927 306.231 391.363 306.231 394.731C306.231 395.754 307.661 397.371 309.408 398.325C311.157 399.279 313.448 400.939 314.5 402.012C315.552 403.086 317.611 403.964 319.077 403.964C320.543 403.964 322.139 404.619 322.623 405.419C324.173 407.976 329.204 407.123 328.744 404.38C327.95 399.656 332.561 400.985 335.096 406.213C338.484 413.197 338.33 420.8 334.739 423.937C333.171 425.307 331.888 427.263 331.888 428.286C331.888 429.308 331.035 430.145 329.991 430.145C326.519 430.145 321.982 443.664 324.848 445.472C325.867 446.113 325.649 447.248 324.195 448.887C321.561 451.857 322.553 456.741 326.748 461.453C328.399 463.309 332.205 469.95 335.207 476.212C338.207 482.473 341.147 488.578 341.739 489.778C342.331 490.978 345.97 494.025 349.824 496.548C362.243 504.68 363.233 505.883 363.437 513.049C363.688 521.927 362.083 537.525 360.361 542.917C359.587 545.344 358.732 552.337 358.463 558.456C358.093 566.837 357.036 571.536 354.175 577.503C352.085 581.859 350.748 586.411 351.201 587.617C351.998 589.736 349.749 605.343 347.961 610.096C347.279 611.909 347.766 612.24 350.178 611.595C353.371 610.744 353.868 611.578 352.439 615.378C351.983 616.593 350.7 617.231 349.588 616.796C347.304 615.902 346.801 618.571 348.993 619.953C349.777 620.447 350.419 621.506 350.419 622.306C350.419 623.106 349.773 623.353 348.982 622.854C347.425 621.873 343.292 625.401 343.292 627.712C343.292 628.495 344.674 628.765 346.365 628.314C349.689 627.427 349.306 628.959 344.857 634.346C343.577 635.895 343.203 637.329 344.004 637.617C344.788 637.899 345.293 641.732 345.126 646.132C344.96 650.533 345.441 654.133 346.195 654.133C346.951 654.133 347.568 653.439 347.568 652.592C347.568 651.746 348.218 651.462 349.011 651.963C349.891 652.517 349.963 653.768 349.196 655.167C347.535 658.195 351.709 665.747 355.051 665.76C356.424 665.764 357.546 666.423 357.546 667.223C357.546 668.023 358.026 668.542 358.615 668.378C359.202 668.213 361.737 669.195 364.245 670.56C369.27 673.292 373.894 673.865 372.513 671.586C371.991 670.725 373.606 670.132 376.467 670.132C383.594 670.132 383.825 668.723 377.483 663.963C374.357 661.619 371.752 659.264 371.69 658.733C371.631 658.204 371.321 656.787 371.003 655.587C368.616 646.577 368.67 645.692 371.661 644.724C373.305 644.191 374.651 642.73 374.651 641.475C374.651 640.221 376.255 637.678 378.215 635.824C380.175 633.971 381.778 631.753 381.778 630.895C381.778 630.037 380.175 628.713 378.215 627.952C376.255 627.192 374.651 626 374.651 625.305C374.651 623.404 379.74 619.084 380.755 620.121C381.242 620.617 382.099 619.153 382.662 616.866C383.677 612.737 387.243 607.984 388.804 608.681C389.252 608.88 389.618 608.227 389.618 607.226C389.618 606.227 388.495 605.6 387.123 605.836C385.516 606.111 384.629 605.331 384.629 603.639C384.629 601.656 385.739 601.02 389.192 601.03C393.082 601.043 393.946 600.374 395.052 596.489C396.208 592.428 397.049 591.852 402.773 591.193C410.52 590.302 417.045 584.695 415.278 580.445C413.019 575.013 413.484 573.154 416.93 573.826C422.79 574.969 426.734 572.922 429.962 567.064C431.692 563.922 434.033 560.99 435.164 560.548C436.295 560.104 438.315 557.581 439.652 554.939C440.99 552.3 442.99 549.46 444.098 548.633C445.204 547.805 446.304 544.635 446.541 541.586C446.987 535.857 451.953 529.169 456.236 528.528C457.461 528.343 459.332 527.457 460.394 526.558C461.456 525.658 464.554 524.705 467.276 524.441C470.615 524.115 472.72 522.943 473.741 520.841C474.573 519.126 476.08 516.709 477.089 515.468C479.589 512.395 482.946 499.038 482.966 492.082C482.976 488.949 483.937 485.349 485.103 484.082C494.181 474.214 498.663 467.382 498.663 463.413C498.663 457.897 496.362 453.416 493.528 453.416C492.328 453.416 489.095 451.665 486.344 449.524C483.016 446.934 478.571 445.245 473.048 444.475C468.485 443.838 462.601 442.045 459.97 440.492C457.34 438.937 452.395 436.831 448.981 435.811C445.567 434.792 442.443 432.936 442.038 431.688C437.578 417.934 431.014 411.658 420.42 411.02C415.549 410.727 413.318 409.639 409.818 405.852C407.379 403.214 404.241 401.055 402.846 401.055C401.01 401.055 400.309 399.915 400.309 396.93C400.309 393.121 399.87 392.788 394.573 392.576C391.418 392.449 387.622 393.121 386.137 394.068C384.05 395.397 382.963 395.39 381.362 394.034C380.222 393.069 378.152 392.723 376.764 393.267C375.267 393.853 373.585 393.419 372.634 392.2C371.076 390.205 365.457 386.51 363.98 386.51C363.577 386.51 363.248 387.422 363.248 388.537C363.248 389.651 362.126 390.999 360.753 391.531C358.753 392.308 358.612 392.138 360.04 390.669C361.021 389.662 361.822 388.314 361.822 387.674C361.822 385.697 356.567 386.391 354.765 388.606C353.828 389.758 351.358 390.903 349.279 391.152C347.024 391.419 344.83 392.973 343.846 394.996C341.05 400.75 339.841 401.253 334.87 398.722C330.928 396.715 329.659 396.639 326.738 398.235C323.721 399.883 322.78 399.74 319.387 397.119C315.76 394.318 315.525 393.482 315.919 384.759C316.311 376.127 316.083 375.283 312.967 373.835C311.11 372.971 306.611 372.607 302.969 373.026L296.348 373.788L297.842 368.877C298.663 366.176 299.657 362.657 300.05 361.057C300.445 359.457 301.463 356.676 302.314 354.879C304.429 350.403 303.166 349.632 295.606 350.79C290.701 351.541 289.126 352.412 289.126 354.375C289.126 358.569 284.244 361.905 277.718 362.171C272.584 362.379 271.168 361.769 268.29 358.1C264.195 352.879 263.203 347.91 263.89 336.049C264.408 327.111 266.443 322.514 269.883 322.514C270.866 322.514 272.485 321.513 273.48 320.29C275.262 318.1 276.407 318.095 290.272 320.22C294.441 320.859 294.882 320.614 294.096 318.091C293.305 315.548 293.902 315.242 299.637 315.242C303.17 315.242 306.477 315.928 306.986 316.766C307.494 317.604 309.036 318.095 310.414 317.857C314.19 317.204 317.634 320.898 317.634 325.6C317.634 327.903 318.276 329.786 319.06 329.786C319.844 329.786 320.485 330.433 320.485 331.225C320.485 332.921 324.975 338.513 326.338 338.513C328.915 338.513 328.66 329.703 325.84 321.334C322.13 310.323 322.452 309.568 334.431 301.197C339.191 297.872 342.703 294.763 342.237 294.288C341.772 293.813 342.164 293.425 343.108 293.425C344.056 293.425 344.647 291.96 344.426 290.152C344.027 286.872 351.25 270.364 353.962 268.357C354.758 267.769 357.12 267.279 359.211 267.266C363.916 267.238 367.524 265.899 367.524 264.18C367.524 263.465 366.562 262.881 365.386 262.881C362.985 262.881 362.716 261.625 364.498 258.757C365.516 257.118 380.933 248.336 382.793 248.336C383.131 248.336 382.4 249.364 381.167 250.621C379.935 251.879 378.927 253.536 378.927 254.304C378.927 256.869 383.281 257.442 385.751 255.201C387.094 253.982 390.919 252.164 394.251 251.158C397.582 250.153 400.309 248.78 400.309 248.106C400.309 247.433 401.339 246.882 402.599 246.882C404.103 246.882 404.592 246.09 404.025 244.581C403.549 243.315 403.159 242.006 403.159 241.672C403.159 239.999 398.684 241.357 397.974 243.245C397.522 244.445 396.543 245.427 395.796 245.427C395.049 245.427 394.764 244.892 395.16 244.237C395.556 243.583 393.669 242.23 390.968 241.234C386.002 239.401 384.149 234.747 387.836 233.367C390.999 232.184 386.568 228.944 381.787 228.944C379.292 228.944 377.64 228.267 377.928 227.367C378.548 225.438 386.054 224.349 386.054 226.189C386.054 227.717 392.348 230.882 395.387 230.882C398.855 230.882 397.7 228.307 393.538 226.755C390.017 225.443 390.379 225.283 397.101 225.179C402.656 225.094 405.342 224.292 407.523 222.067C409.139 220.417 411.343 219.271 412.419 219.522C413.847 219.852 413.246 221.66 410.194 226.206C407.893 229.634 406.01 233.726 406.01 235.297C406.01 237.761 407.004 238.155 413.221 238.155C417.666 238.155 420.095 238.713 419.552 239.609C418.404 241.503 419.74 241.453 423.38 239.464C425.082 238.536 425.943 238.472 425.433 239.311C424.951 240.108 425.624 241.177 426.93 241.688C428.234 242.198 429.819 241.776 430.452 240.749C431.709 238.709 430.559 233.339 428.709 232.606C428.073 232.354 427.905 231.21 428.337 230.061C429.075 228.1 426.743 227.262 422.155 227.84C419.768 228.141 418.303 222.387 420.178 220.082C421.187 218.839 421.302 216.911 420.5 214.697C419.811 212.799 419.545 210.386 419.907 209.333C420.269 208.28 419.292 207.079 417.737 206.664C416.182 206.249 414.269 204.475 413.487 202.719C412.703 200.965 410.689 199.425 409.009 199.296C404.807 198.973 397.459 192.794 398.29 190.285C398.665 189.155 396.386 184.469 393.226 179.873C390.066 175.275 387.48 170.8 387.48 169.927C387.48 166.995 385.128 168.305 383.148 172.34C379.972 178.809 376.095 181.428 372.607 179.457C368.144 176.936 367.359 175.319 368.096 170.158C368.7 165.926 368.405 165.431 365.283 165.431C363.366 165.431 359.929 163.732 357.644 161.655C354.185 158.509 351.985 157.842 344.472 157.656L335.452 157.432V165.431C335.452 169.831 334.916 174.941 334.262 176.785C333.317 179.447 333.833 180.86 336.756 183.625C342.347 188.911 341.641 193.741 334.694 197.75C330.181 200.353 329.125 201.691 329.779 203.975C333.424 216.703 331.137 222.074 324.894 215.455C322.278 212.681 322.076 211.974 323.899 211.974C325.158 211.974 326.187 211.32 326.187 210.52C326.187 209.72 324.904 209.065 323.336 209.065C320.628 209.065 319.745 206.905 320.425 201.947C320.794 199.259 317.834 197.479 312.945 197.451C308.842 197.43 298.539 192.755 297.004 190.22C296.527 189.431 293.07 188.373 289.324 187.865C283.488 187.075 282.287 186.339 280.952 182.732C279.92 179.941 278.392 178.521 276.421 178.521C274.323 178.521 273.446 177.595 273.446 175.377C273.446 170.499 280.218 159.875 284.905 157.403C287.227 156.178 289.126 154.223 289.126 153.058C289.126 151.895 290.89 150.514 293.046 149.992C297.667 148.872 301.955 145.384 301.955 142.747C301.955 141.719 302.503 140.531 303.175 140.108C304.764 139.105 303.42 146.705 301.588 149.069C300.573 150.379 300.881 150.887 302.692 150.887C304.074 150.887 305.937 151.911 306.834 153.161C308.286 155.187 308.899 155.089 312.44 152.245C315.889 149.477 316.863 149.298 319.779 150.891C323.394 152.865 328.366 151.854 326.905 149.442C326.418 148.637 325.095 147.978 323.964 147.978C322.834 147.978 321.91 147.076 321.91 145.972C321.91 144.869 319.972 143.147 317.604 142.147C315.235 141.146 312.89 139.657 312.394 138.836C311.877 137.981 312.193 137.789 313.137 138.385C314.042 138.956 314.783 138.72 314.783 137.862C314.783 137.004 316.867 134.386 319.416 132.044C323.684 128.123 323.893 127.529 322.073 124.495C320.669 122.155 320.565 121.042 321.717 120.651C324.158 119.821 323.659 115.824 320.841 113.641C318.502 111.83 318.525 111.708 321.198 111.684C322.766 111.671 324.989 112.268 326.138 113.009C327.491 113.882 328.948 113.75 330.265 112.636C331.958 111.201 332.129 111.459 331.285 114.173C330.031 118.203 332.622 118.562 334.678 114.643C335.744 112.609 335.66 111.676 334.372 111.206C333.398 110.851 333.052 110.065 333.602 109.46C334.153 108.855 335.566 109.343 336.742 110.543C337.918 111.742 338.514 113.098 338.065 113.555C336.46 115.194 341.866 119.085 344.545 118.218C346.247 117.665 347.54 118.168 348.074 119.591C348.743 121.367 348.181 121.644 345.373 120.926C339.038 119.303 334.438 126.398 340.544 128.376C342.303 128.946 344.463 128.481 345.889 127.224C347.205 126.065 349.682 124.769 351.395 124.345C356.152 123.167 356.829 127.355 352.452 130.869C350.07 132.78 349.009 134.79 349.457 136.54C350.162 139.292 348.299 139.911 341.031 139.34C337.359 139.05 334.116 142.769 335.299 145.912C336.021 147.832 337.475 148.066 343.457 147.227C350.608 146.224 357.546 148.177 357.546 151.193C357.546 153.509 363.004 158.485 364.506 157.536C365.317 157.024 367.131 157.195 368.535 157.915C369.939 158.635 373.241 159.935 375.874 160.806C380.498 162.335 380.638 162.268 379.991 158.819C379.322 155.247 380.833 153.969 382.491 156.704C384.171 159.478 386.86 158.14 387.165 154.377C387.515 150.055 382.591 142.16 379.543 142.16C377.413 142.16 377.348 142.03 376.801 136.691C376.513 133.871 376.788 133.664 378.745 135.237C380.001 136.244 381.998 138.157 383.184 139.488C386.02 142.669 391.756 144.389 391.756 142.061C391.756 141.099 393.401 138.756 395.411 136.855C399.207 133.266 399.2 127.615 395.398 127.615C394.37 127.615 391.046 126.51 388.01 125.158C384.974 123.807 382.17 122.603 381.778 122.484C381.386 122.364 378.82 121.233 376.076 119.972L371.087 117.677L375.007 116.67C379.359 115.553 380.331 113.083 376.433 113.049C374.641 113.033 374.443 112.7 375.73 111.865C377.987 110.403 372.111 104.844 366.898 103.509C364.955 103.011 362.618 101.686 361.707 100.565C360.795 99.4435 357.881 98.5257 355.234 98.5257C352.58 98.5257 350.419 97.781 350.419 96.8676C350.419 94.5332 345.967 91.3581 342.579 91.2766C340.571 91.2287 340.266 90.8607 341.544 90.0331C342.931 89.1342 342.682 88.2324 340.488 86.2064C335.952 82.019 317.038 81.5768 310.715 85.5111C307.214 87.6885 306.13 89.2448 306.661 91.3232C307.062 92.8824 306.807 94.5259 306.097 94.9739C303.431 96.6553 304.931 89.1226 307.904 85.8922C311.224 82.2866 310.806 82.0117 302.667 82.4466C296.646 82.768 290.551 89.7713 290.551 96.3673C290.551 99.1541 291.193 101.435 291.977 101.435C292.761 101.435 293.402 102.393 293.402 103.565C293.402 106.138 298.207 108.989 301.557 108.403C302.997 108.151 304.701 109.485 305.759 111.689C307.923 116.198 306.788 121.924 303.952 120.814C302.53 120.257 301.955 121.214 301.955 124.135C301.955 128.089 301.865 128.142 299.46 125.57C297.809 123.806 297.517 122.692 298.596 122.28C301.061 121.339 299.182 116.2 295.995 115.168C294.166 114.576 292.493 115.191 291.178 116.938C289.287 119.451 289.184 119.392 289.501 115.984C289.76 113.19 289.094 112.244 286.61 111.881C284.835 111.62 283.758 110.788 284.215 110.031C285.006 108.724 279.818 98.6784 277.494 97.0189C276.896 96.5913 276.756 94.8663 277.186 93.1878C277.735 91.0483 278.782 90.3531 280.69 90.8636C283.461 91.6025 288.983 86.4231 289.079 82.9949C289.106 81.9986 285.842 80.8627 281.275 80.2809C270.712 78.934 268.57 80.7361 269.77 89.9633C270.434 95.0728 270.111 97.3578 268.489 99.013C267.295 100.23 266.319 103.293 266.319 105.82C266.319 109.529 267.097 110.714 270.357 111.969C273.453 113.162 274.397 114.465 274.397 117.555C274.397 120.239 273.525 121.818 271.783 122.282C270.163 122.714 269.17 122.202 269.17 120.933C269.17 119.809 269.911 118.888 270.816 118.888C272.835 118.888 268.104 113.369 264.309 111.297C262.221 110.157 261.17 110.33 259.962 112.017C259.085 113.241 256.84 114.47 254.971 114.747C253.104 115.025 251.278 116.174 250.913 117.301C250.458 118.709 250.98 119.066 252.581 118.439C253.864 117.937 256.357 118.119 258.121 118.842C259.886 119.566 260.491 120.2 259.464 120.251C258.438 120.301 257.943 120.913 258.365 121.61C259.583 123.62 248.22 124.591 242.393 122.975C239.481 122.168 236.086 120.591 234.847 119.472C233.61 118.35 231.167 117.434 229.418 117.434C227.67 117.434 226.607 116.827 227.054 116.087C227.548 115.274 229.701 115.358 232.484 116.301C235.023 117.16 238.863 117.86 241.018 117.857C243.173 117.854 244.938 118.411 244.938 119.098C244.938 119.783 245.532 120.343 246.259 120.343C248.574 120.343 248.688 115.319 246.414 113.481C244.523 111.949 244.661 111.702 247.432 111.662C252.733 111.585 251.049 107.839 244.862 105.946C241.685 104.975 238.89 103.4 238.649 102.444C238.409 101.488 237.429 98.2217 236.469 95.1834C235.137 90.9625 235.118 89.1749 236.391 87.6099C240.52 82.5338 231.143 80.5529 225.169 85.2406C222.255 87.527 222.024 88.3314 223.479 91.1065C224.407 92.8766 224.913 95.099 224.604 96.0473C224.293 96.9956 223.125 95.8131 222.003 93.4205C220.76 90.7647 218.662 88.8826 216.615 88.5859C214.481 88.2761 213.61 88.6732 214.217 89.6767C214.743 90.5436 214.531 91.2534 213.747 91.2534C212.963 91.2534 211.925 90.5989 211.44 89.7989C210.244 87.8237 204.55 87.9575 202.54 90.0083C201.316 91.2577 201.109 90.8941 201.709 88.5539C202.308 86.218 201.863 85.4355 199.939 85.4355C198.526 85.4355 195.936 84.061 194.183 82.3811C192.421 80.691 188.558 79.1027 185.539 78.8264C182.537 78.55 177.195 77.993 173.667 77.5872C170.139 77.1814 165.828 77.3079 164.088 77.8694ZM1037.47 79.6176C1037.47 80.4176 1036.35 81.0619 1034.98 81.0503C1032.84 81.0314 1032.79 80.8219 1034.62 79.6176C1037.31 77.8432 1037.47 77.8432 1037.47 79.6176ZM254.916 80.6823C248.993 81.7935 244.896 86.89 249.927 86.89C251.103 86.89 252.065 87.6143 252.065 88.5001C252.065 89.3858 251.103 89.7131 249.927 89.2273C248.751 88.7415 246.826 87.9474 245.65 87.4616C241.819 85.8791 243.304 91.0541 247.432 93.6707C249.587 95.0365 252.768 97.4305 254.498 98.9897C257.504 101.699 257.869 101.715 262.694 99.3795C268.38 96.6276 268.752 94.7703 265.412 85.8471C263.055 79.5493 262.475 79.2642 254.916 80.6823ZM1128.73 81.8342C1129.72 83.0531 1130.82 83.7512 1131.18 83.3862C1132.17 82.3768 1130.16 79.6176 1128.44 79.6176C1127.49 79.6176 1127.6 80.4525 1128.73 81.8342ZM1144.38 81.0721C1144.38 81.8721 1145.5 82.5469 1146.87 82.5702C1149.05 82.6095 1149.01 82.8276 1146.52 84.3127C1143.76 85.9577 1143.78 86.0449 1147.23 87.0325C1149.19 87.5954 1152.93 88.119 1155.54 88.199C1161.58 88.3837 1160.99 85.2697 1154.62 83.3163C1152.12 82.5513 1150.08 81.4052 1150.08 80.771C1150.08 80.1369 1148.8 79.6176 1147.23 79.6176C1145.66 79.6176 1144.38 80.2721 1144.38 81.0721ZM1030.22 84.5905C1029.89 84.925 1027.7 85.6071 1025.35 86.1075L1021.08 87.0151L1025.36 84.9773C1029.17 83.1607 1031.83 82.9484 1030.22 84.5905ZM330.507 92.9755C326.918 94.331 325.4 93.7274 326.758 91.4861C327.229 90.708 329.01 90.4447 330.715 90.9L333.817 91.7261L330.507 92.9755ZM1294.16 100.376C1292.26 101.358 1290.41 103.071 1290.05 104.184C1289.53 105.792 1290.9 106.057 1296.74 105.484C1304.57 104.717 1306.79 103.619 1304.64 101.574C1302.07 99.1221 1297.57 98.6086 1294.16 100.376ZM298.717 102.313C298.244 102.796 297.014 102.848 295.986 102.428C294.849 101.964 295.187 101.619 296.847 101.55C298.35 101.487 299.191 101.83 298.717 102.313ZM433.093 102.889C433.093 103.689 431.651 104.297 429.886 104.242C426.826 104.144 426.81 104.082 429.53 102.889C431.098 102.201 432.542 101.593 432.737 101.536C432.932 101.481 433.093 102.089 433.093 102.889ZM201.836 106.797C200.473 107.161 197.907 107.174 196.134 106.826C194.361 106.479 195.476 106.181 198.612 106.165C201.747 106.149 203.199 106.434 201.836 106.797ZM806.554 115.979C806.554 118.506 807.282 118.996 810.473 118.621C812.807 118.347 814.393 117.278 814.393 115.979C814.393 114.68 812.807 113.611 810.473 113.338C807.282 112.963 806.554 113.453 806.554 115.979ZM203.241 118.314C205.007 120.117 207.103 120.436 212.422 119.716C216.213 119.204 220.429 118.418 221.792 117.972C223.921 117.274 223.97 117.397 222.131 118.862C220.516 120.148 220.429 120.744 221.775 121.301C222.755 121.707 223.556 122.639 223.556 123.372C223.556 125.394 218.187 124.968 217.439 122.888C216.917 121.434 216.408 121.434 214.897 122.888C212.658 125.044 199.324 125.355 199.324 123.252C199.324 122.452 199.966 121.797 200.75 121.797C203.422 121.797 202.185 118.798 198.968 117.479C196.359 116.41 196.245 116.147 198.356 116.071C199.785 116.022 201.983 117.029 203.241 118.314ZM912.391 116.942C911.412 117.347 909.808 117.347 908.827 116.942C907.848 116.539 908.649 116.209 910.609 116.209C912.569 116.209 913.372 116.539 912.391 116.942ZM178.459 132.706C177.852 134.32 178.696 134.911 181.71 134.979L185.783 135.072L182.219 136.633C180.259 137.491 177.406 138.332 175.878 138.5C174.349 138.669 172.853 139.562 172.551 140.484C172.25 141.405 171.255 142.138 170.341 142.112C169.426 142.084 170.122 140.835 171.885 139.332C175.719 136.068 175.927 134.887 172.669 134.887C169.627 134.887 171.848 132.533 175.805 131.561C177.373 131.176 178.795 130.786 178.968 130.693C179.139 130.6 178.909 131.506 178.459 132.706ZM363.96 131.978C364.445 132.778 363.804 133.433 362.535 133.433C361.266 133.433 360.625 132.778 361.11 131.978C361.594 131.179 362.236 130.524 362.535 130.524C362.834 130.524 363.476 131.179 363.96 131.978ZM539.498 134.873C536.385 138.083 537.645 141.203 541.545 139.939C543.072 139.444 544.276 139.74 544.276 140.608C544.276 141.462 542.834 142.203 541.069 142.259L537.862 142.356L541.08 143.94C542.851 144.811 544.134 146.557 543.931 147.819C543.549 150.209 546.22 150.878 557.933 151.327C565.273 151.609 577.061 145.616 577.061 141.601C577.061 136.503 566.831 129.259 565.419 133.36C565.159 134.119 562.058 134.902 558.53 135.098C555.002 135.293 551.474 136.153 550.69 137.007C549.907 137.86 549.426 138.276 549.624 137.932C550.249 136.844 545.331 131.974 543.699 132.064C542.841 132.112 540.951 133.376 539.498 134.873ZM309.082 134.887C310.925 136.102 310.886 136.3 308.809 136.32C307.484 136.332 306.003 135.687 305.518 134.887C304.403 133.046 306.291 133.046 309.082 134.887ZM718.946 139.344C719.462 140.195 716.611 143.883 712.611 147.54L705.339 154.191L705.99 162.229C706.348 166.649 707.473 170.842 708.489 171.544C710.345 172.827 715.083 172.423 726.405 170.014C729.753 169.302 732.778 169.19 733.126 169.766C734.125 171.414 727.168 174.641 724.7 173.674C723.477 173.195 719.265 173.863 715.338 175.156C710.114 176.878 708.2 178.244 708.2 180.248C708.2 181.755 707.163 184.601 705.896 186.575C704.623 188.557 703.896 191.786 704.271 193.791C704.808 196.659 704.121 197.841 700.991 199.435C698.611 200.647 696.512 200.922 695.733 200.126C694.953 199.331 691.921 199.963 688.132 201.71C682.873 204.138 681.584 204.289 680.351 202.625C679.137 200.986 678.116 200.957 674.618 202.458C671.133 203.953 670.034 203.925 668.556 202.311C666.703 200.286 667.759 199.658 672.101 200.205C673.022 200.321 674.182 199.744 674.679 198.923C675.177 198.102 676.827 197.43 678.35 197.43C679.872 197.43 681.117 196.775 681.117 195.975C681.117 195.175 682.652 194.521 684.528 194.521C688.353 194.521 689.669 192.132 689.669 185.193C689.669 181.669 690.556 179.983 693.157 178.562C698.043 175.895 698.786 172.778 695.411 169.111C690.199 163.45 692.196 157.331 701.134 151.575C704.502 149.404 706.774 146.818 706.774 145.155C706.774 139.491 716.286 134.95 718.946 139.344ZM1325.74 152.638C1326.59 155.233 1335.42 157.246 1337.35 155.282C1339.54 153.042 1335.97 150.937 1329.92 150.908C1326.84 150.894 1325.37 151.503 1325.74 152.638ZM206.44 162.477C206.421 163.747 198.968 166.886 195.972 166.886C193.35 166.886 193.375 166.718 196.386 164.054C198.145 162.496 199.202 160.588 198.733 159.813C198.251 159.017 199.743 159.122 202.165 160.054C204.523 160.963 206.446 162.053 206.44 162.477ZM700.478 169.6C699.864 170.614 699.747 171.835 700.217 172.315C701.493 173.617 702.884 171.703 702.194 169.594C701.712 168.116 701.376 168.116 700.478 169.6ZM3.3902 171.149C2.33539 172.89 5.01661 174.613 6.91527 173.416C8.51031 172.411 7.46263 169.795 5.46704 169.795C4.77571 169.795 3.84063 170.404 3.3902 171.149ZM1233.62 179.355C1233.03 180.949 1233.48 181.5 1235.14 181.173C1236.44 180.914 1237.77 179.886 1238.1 178.885C1238.97 176.21 1234.64 176.666 1233.62 179.355ZM54.4673 182.102C54.0283 183.272 52.4446 184.624 50.9494 185.109C46.9496 186.405 47.5526 190.157 51.7604 190.157C55.5606 190.157 60.561 184.139 58.9588 181.494C57.6417 179.319 55.401 179.623 54.4673 182.102ZM716.752 183.526C716.752 186.63 714.913 187.237 712.028 185.084C710.118 183.66 709.943 182.987 711.331 182.419C714.771 181.013 716.752 181.417 716.752 183.526ZM10.5173 201.693C10.0654 202.437 10.2379 203.387 10.8979 203.805C12.7296 204.959 18.3714 203.095 17.4833 201.627C16.4528 199.925 11.5593 199.972 10.5173 201.693ZM1027.41 207.233C1024.11 211.427 1024.12 211.043 1027.49 204.174C1028.61 201.883 1029.76 200.731 1030.05 201.614C1030.34 202.497 1029.15 205.026 1027.41 207.233ZM1.52147 207.611C0.0632683 209.995 0.0974781 210.52 1.71676 210.52C4.14425 210.52 7.21746 206.974 5.9303 205.659C4.39797 204.097 3.40303 204.538 1.52147 207.611ZM263.229 211.292C264.765 214.732 264.683 214.87 261.993 213.401C260.408 212.536 259.454 211.263 259.873 210.571C260.292 209.88 259.829 208.982 258.844 208.577C257.67 208.094 257.834 207.801 259.319 207.726C260.566 207.663 262.325 209.268 263.229 211.292ZM1198.54 229.428C1198.54 230.228 1199.19 230.882 1199.97 230.882C1200.75 230.882 1201.4 230.228 1201.4 229.428C1201.4 228.628 1200.75 227.973 1199.97 227.973C1199.19 227.973 1198.54 228.628 1198.54 229.428ZM168.51 231.685C168.996 232.98 168.756 233.563 167.949 233.054C167.174 232.565 166.54 231.55 166.54 230.797C166.54 228.705 167.562 229.166 168.51 231.685ZM306.916 236.329L311.137 240.322L306.902 241.193C303.895 241.811 302.022 241.339 300.442 239.561C298.439 237.307 297.821 237.27 294.227 239.192C291.687 240.549 289.742 240.819 288.873 239.934C288.004 239.046 289.486 237.449 292.95 235.537C300.206 231.53 301.947 231.629 306.916 236.329ZM767.544 241.427C767.012 245.013 764.993 246.882 761.653 246.882C754.551 246.882 757.878 242.844 767.585 239.685C767.711 239.643 767.694 240.428 767.544 241.427ZM1189.28 241.064C1188.79 241.864 1189.08 242.518 1189.91 242.518C1190.74 242.518 1191.42 241.864 1191.42 241.064C1191.42 240.264 1191.14 239.609 1190.79 239.609C1190.44 239.609 1189.76 240.264 1189.28 241.064ZM823.882 243.113C825.495 245.388 823.448 248.464 820.878 247.632C819.498 247.184 817.407 248.001 816.07 249.507C814.074 251.758 813.981 252.781 815.475 256.075C816.447 258.221 818.229 260.302 819.434 260.7C820.637 261.099 821.744 262.734 821.894 264.334C822.044 265.935 822.274 268.389 822.408 269.789C822.544 271.19 823.52 273.626 824.581 275.204C827.6 279.694 827.034 285.786 823.493 286.933C820.098 288.033 809.447 283.477 809.42 280.915C809.412 280.035 810.121 277.213 810.999 274.646C812.452 270.393 812.198 269.475 808.149 264.332C805.703 261.228 803.703 257.706 803.703 256.507C803.703 255.307 803.074 253.93 802.306 253.446C800.55 252.337 803.403 247.401 806.482 246.224C807.698 245.76 810.295 244.419 812.255 243.245C816.037 240.979 822.32 240.908 823.882 243.113ZM744.431 243.401C745.671 243.887 746.686 245.196 746.686 246.31C746.686 247.424 747.327 248.336 748.111 248.336C748.895 248.336 749.537 249.318 749.537 250.518C749.537 253.155 750.135 253.192 756.228 250.945C761.499 248.999 764.867 250.385 775.596 258.914C779.894 262.329 780.654 263.608 779.341 265.221C777.131 267.938 768.013 267.781 760.967 264.904C757.17 263.353 753.43 262.885 749.89 263.516C735.418 266.099 732.472 266.133 731.566 263.727C730.52 260.943 733.603 252.47 736.267 250.809C737.294 250.169 738.133 248.828 738.133 247.827C738.133 246.828 738.903 245.223 739.844 244.263C741.842 242.224 741.56 242.277 744.431 243.401ZM1181.44 245.427C1180.31 246.14 1179.86 247.206 1180.44 247.796C1181.01 248.387 1182.23 248.106 1183.15 247.172C1185.3 244.975 1184.1 243.749 1181.44 245.427ZM306.335 249.26C304.699 251.382 303.38 255.237 303.38 257.901C303.38 260.545 302.739 263.113 301.955 263.608C301.069 264.166 300.529 261.426 300.529 256.375C300.529 249.3 300.947 248.071 303.736 246.927C308.965 244.783 309.449 245.218 306.335 249.26ZM317.909 247.031C320.065 248.208 321.112 248.199 321.841 246.998C322.499 245.91 323.745 246.471 325.541 248.665C327.031 250.484 327.336 251.155 326.219 250.154C323.236 247.481 321.913 247.924 321.889 251.609C321.876 253.409 321.245 255.863 320.485 257.063C319.305 258.927 319.1 258.875 319.081 256.699C319.07 255.299 318.418 254.154 317.634 254.154C316.85 254.154 316.209 252.877 316.209 251.318C316.209 249.757 315.087 247.814 313.714 246.998C310.263 244.947 314.149 244.978 317.909 247.031ZM679.51 251.245C680.08 251.245 684.523 254.197 689.384 257.806C695.231 262.149 698.222 265.374 698.222 267.339C698.222 268.971 699.825 272.716 701.785 275.658C703.745 278.602 705.349 281.793 705.349 282.75C705.349 284.808 709.259 289.061 711.152 289.061C711.88 289.061 712.476 288.348 712.476 287.476C712.476 286.605 713.918 284.641 715.683 283.114C718.487 280.685 718.621 280.107 716.752 278.518C715.576 277.517 713.776 275.604 712.751 274.268C711.112 272.13 711.263 271.936 714 272.666C716.027 273.207 717.56 272.681 718.396 271.158C720.451 267.41 723.144 269.746 723.44 275.535C723.59 278.47 724.858 283.041 726.258 285.693C728.754 290.42 731.006 291.995 731.006 289.01C731.006 288.005 731.984 288.039 733.948 289.111C736.086 290.279 737.405 290.281 738.778 289.119C740.155 287.953 741.673 287.989 744.388 289.252C747.228 290.572 748.972 290.582 751.742 289.295C758.096 286.341 759.242 287.018 758.114 293.061C756.635 300.967 752.825 309.408 750.679 309.526C731.43 310.587 717.842 308.874 713.26 304.807C711.224 303.001 703.306 303.363 701.357 305.351C700.417 306.311 699.647 308.672 699.647 310.597C699.647 313.358 699.12 313.879 697.153 313.058C695.781 312.485 692.574 311.403 690.025 310.653C687.477 309.901 685.393 308.343 685.393 307.191C685.393 305.879 683.315 304.755 679.841 304.189C674.557 303.327 664.247 297.817 667.88 297.798C668.99 297.791 669.563 295.502 669.484 291.387L667.88 287.292L662.412 285.78L655.637 285.506C638.271 286.165 631.9 287.271 626.013 290.645C621.146 293.435 611.78 293.986 610.316 291.57C609.156 289.656 612.661 287.656 617.219 287.628C621.903 287.601 629.794 280.026 628.965 276.353C628.248 273.183 630.679 270.117 636.24 267.18C639.208 265.612 640.492 263.854 640.492 261.362C640.492 258.05 640.94 257.825 646.614 258.258C650.798 258.58 654.236 257.825 657.474 255.875C662.68 252.742 663.634 253.025 667.222 258.782C668.559 260.929 673.195 265.084 677.526 268.016C686.529 274.115 687.15 274.851 685.957 278.022C685.369 279.588 683.296 280.334 679.539 280.334C672.581 280.334 672.125 283.425 678.723 285.86C684.687 288.06 685.617 288.049 685.106 285.78C684.881 284.776 686.168 282.452 687.969 280.615C690.172 278.366 690.946 276.333 690.34 274.386C689.559 271.871 689.923 271.618 693.136 272.439C696.029 273.181 696.654 272.921 696.021 271.24C695.577 270.058 693.646 268.364 691.729 267.472C689.812 266.581 688.244 265.183 688.244 264.366C688.244 263.55 687.4 262.881 686.368 262.881C684.104 262.881 675.415 253.155 675.415 250.62C675.415 247.747 677.507 246.39 678.013 248.932C678.267 250.205 678.941 251.245 679.51 251.245ZM851.688 251.875C851.216 253.128 850.102 254.154 849.208 254.154C848.314 254.154 847.975 253.121 848.451 251.853C848.927 250.588 849.316 248.82 849.316 247.926C849.316 246.74 849.752 246.745 850.931 247.948C851.819 248.854 852.16 250.621 851.688 251.875ZM1173.96 249.238C1170.35 251.169 1168.58 254.197 1171.1 254.122C1172.83 254.069 1179.32 248.601 1178.57 247.836C1178.19 247.452 1176.11 248.083 1173.96 249.238ZM1150.08 251.914C1150.08 253.898 1148.43 257.054 1146.37 259.002C1143.26 261.944 1142.91 262.998 1144.24 265.518C1145.32 267.587 1145.35 268.813 1144.32 269.459C1143.51 269.976 1143.16 271.488 1143.55 272.821C1144.34 275.551 1140.97 282.711 1139.15 282.152C1138.5 281.953 1137.96 282.608 1137.95 283.607C1137.94 284.608 1136.61 285.24 1134.99 285.013C1133.03 284.738 1131.53 285.771 1130.49 288.104C1129.3 290.756 1127.38 291.841 1122.59 292.575C1118.37 293.221 1114.52 295.12 1111.05 298.269C1106.48 302.42 1105.96 303.568 1106.76 307.694C1107.27 310.279 1108.29 312.772 1109.02 313.236C1110.73 314.315 1114.34 309.504 1114.4 306.065C1114.42 304.618 1114.96 303.761 1115.6 304.163C1117.24 305.197 1129 302.084 1131.55 299.939C1132.73 298.952 1136.68 297.705 1140.33 297.168C1147.39 296.133 1148.65 294.649 1148.65 287.384C1148.65 284.992 1149.62 282.053 1150.79 280.854C1153.5 278.092 1153.5 274.794 1150.77 268.149C1148.5 262.594 1149.43 261.646 1154.47 264.398C1156.59 265.553 1157.44 265.417 1158.03 263.833C1158.46 262.689 1160.7 261.367 1163.01 260.897C1165.34 260.42 1167.04 259.217 1166.84 258.187C1166.62 257.086 1167.57 256.529 1169.18 256.813C1171.64 257.246 1171.68 257.082 1169.65 255.008C1168.17 253.499 1166.03 253.006 1163.35 253.556C1160.34 254.168 1158.58 253.597 1156.6 251.361C1152.98 247.279 1150.08 247.524 1150.08 251.914ZM340.441 255.608C340.441 256.408 338.356 256.986 335.808 256.891L331.176 256.718L335.452 255.608C337.804 254.997 339.889 254.42 340.085 254.325C340.28 254.231 340.441 254.808 340.441 255.608ZM660.398 260.055C659.886 260.9 659.873 263.246 660.371 265.267C660.955 267.641 660.75 268.611 659.792 268.008C658.122 266.955 657.942 272.322 659.511 276.374C660.358 278.56 660.898 278.669 663.027 277.081C665.142 275.504 665.388 273.878 664.58 266.862C663.657 258.846 662.385 256.775 660.398 260.055ZM326.187 262.748C325.011 263.428 322.445 264.417 320.485 264.947L316.921 265.91L320.485 263.72C322.445 262.516 325.011 261.527 326.187 261.522C328.087 261.515 328.087 261.652 326.187 262.748ZM638.71 272.57C636.229 273.593 636.478 275.971 639.067 275.971C640.243 275.971 641.205 274.989 641.205 273.789C641.205 272.589 641.044 271.66 640.848 271.722C640.653 271.785 639.691 272.167 638.71 272.57ZM749.18 292.206C747.024 293.01 745.26 294.267 745.26 295C745.26 297.173 750.577 296.518 752.999 294.049C756.805 290.164 755.87 289.713 749.18 292.206ZM713.188 293.425C713.673 294.224 716.239 294.879 718.89 294.879C721.541 294.879 724.107 294.224 724.592 293.425C725.131 292.534 722.916 291.97 718.89 291.97C714.865 291.97 712.65 292.534 713.188 293.425ZM205.553 314.151C207.198 320.415 206.704 321.743 203.743 319.009C199.833 315.399 198.944 310.878 202.142 310.878C203.583 310.878 205.067 312.302 205.553 314.151ZM762.505 335.95C763.403 338.16 764.683 339.968 765.353 339.968C767.051 339.968 770.918 347.947 770.918 351.449C770.918 353.043 772.043 355.203 773.418 356.247C777.452 359.313 783.747 370.146 783.747 374.021C783.747 375.986 784.395 379.437 785.188 381.689L786.629 385.783L782.565 381.42C780.33 379.02 777.314 376.355 775.863 375.499C774.413 374.641 772.624 372.023 771.89 369.681C771.156 367.338 769.213 363.917 767.574 362.078C765.933 360.241 764.464 356.969 764.307 354.806C764.15 352.645 763.971 350.432 763.906 349.888C763.844 349.346 762.795 347.886 761.576 346.642C760.357 345.399 759.135 343.224 758.862 341.81C758.588 340.397 756.727 336.315 754.728 332.74C752.05 327.952 751.544 325.942 752.81 325.11C754.754 323.83 759.939 329.626 762.505 335.95ZM1098.05 331.241C1097.57 332.041 1097.81 332.695 1098.6 332.695C1099.38 332.695 1100.42 332.041 1100.9 331.241C1101.39 330.441 1101.14 329.786 1100.36 329.786C1099.57 329.786 1098.54 330.441 1098.05 331.241ZM333.314 337.786C333.314 338.986 333.955 339.968 334.739 339.968C335.523 339.968 336.165 338.986 336.165 337.786C336.165 336.586 335.523 335.604 334.739 335.604C333.955 335.604 333.314 336.586 333.314 337.786ZM1071.73 338.461C1068.3 341.96 1067.99 346.171 1070.97 348.694C1072.77 350.219 1073.45 349.679 1075.25 345.282C1076.42 342.411 1077.38 339.424 1077.38 338.645C1077.38 335.702 1074.53 335.608 1071.73 338.461ZM311.084 347.468C308.378 350.595 308.38 350.603 311.933 349.446C316.825 347.857 324.837 348.19 326.67 350.06C327.501 350.908 329.196 351.603 330.433 351.603C331.672 351.603 333.609 352.912 334.739 354.512C336.302 356.723 338.43 357.421 343.607 357.421C347.353 357.421 350.419 356.85 350.419 356.151C350.419 355.453 345.648 352.508 339.817 349.606C326.77 343.115 315.573 342.282 311.084 347.468ZM351.844 353.058C351.844 353.858 352.486 354.512 353.27 354.512C354.054 354.512 354.695 353.858 354.695 353.058C354.695 352.258 354.054 351.603 353.27 351.603C352.486 351.603 351.844 352.258 351.844 353.058ZM43.9534 358.876C43.9534 360.476 44.8771 361.785 46.0074 361.785C48.9837 361.785 50.3564 358.767 48.0558 357.282C45.0054 355.309 43.9534 355.718 43.9534 358.876ZM351.844 357.107C351.844 357.76 352.614 359.079 353.555 360.039C354.885 361.396 354.568 361.785 352.129 361.785C350.405 361.785 348.993 362.371 348.993 363.086C348.993 364.586 360.398 366.1 362.534 364.884C363.317 364.439 365.724 364.263 367.879 364.493C373.667 365.112 372.775 361.508 366.439 358.672C360.718 356.112 351.844 355.159 351.844 357.107ZM333.662 363.603C334.353 365.749 341.866 366.98 341.866 364.945C341.866 363.389 338.49 361.785 335.217 361.785C334.039 361.785 333.339 362.603 333.662 363.603ZM377.027 362.755C375.089 364.731 376.179 366.148 379.64 366.148C383.621 366.148 384.419 364.026 380.949 362.667C378.158 361.574 378.183 361.574 377.027 362.755ZM1070.26 367.482C1070.26 369.815 1069.58 371.956 1068.74 372.238C1067.7 372.593 1067.77 374.111 1068.96 377.087C1070.7 381.407 1071.05 382.703 1071.47 386.147C1071.77 388.743 1075.96 388.406 1075.96 385.783C1075.96 382.79 1077.73 383.047 1082.28 386.698C1084.97 388.855 1085.69 390.256 1084.65 391.318C1083.61 392.379 1082.35 392.103 1080.51 390.403C1076.91 387.081 1075.96 387.332 1075.96 391.601C1075.96 393.601 1076.64 395.237 1077.47 395.237C1078.3 395.237 1078.56 395.921 1078.06 396.756C1077.55 397.591 1077.84 399.14 1078.7 400.199C1079.87 401.63 1079.72 402.593 1078.11 403.95C1076.93 404.953 1075.96 406.808 1075.96 408.069C1075.96 409.853 1076.34 409.975 1077.67 408.618C1080.17 406.067 1084.61 406.379 1083.61 409.034C1083.07 410.458 1084.09 411.699 1086.6 412.671C1091.64 414.625 1092.09 414.547 1091.09 411.888C1090.63 410.646 1090.81 409.989 1091.51 410.425C1093.42 411.631 1094.52 407.378 1093.56 402.494C1092.64 397.803 1090.16 396.891 1087.43 400.242C1085.72 402.351 1081.66 401.823 1081.66 399.49C1081.66 398.802 1082.49 398.562 1083.51 398.961C1086.3 400.053 1091.94 392.695 1090.9 389.329C1090.41 387.779 1089.1 386.51 1087.98 386.51C1086.86 386.51 1085.94 385.231 1085.94 383.667C1085.94 381.57 1084.63 380.573 1080.95 379.869C1076.17 378.956 1074.36 376.051 1077.38 374.148C1078.17 373.653 1078.81 370.997 1078.81 368.244C1078.81 363.652 1078.46 363.239 1074.53 363.239C1070.76 363.239 1070.26 363.738 1070.26 367.482ZM1062.67 396.423C1058.2 401.177 1057.47 404.824 1061.4 402.674C1064.16 401.169 1068.33 394.241 1067.18 393.073C1066.8 392.68 1064.77 394.187 1062.67 396.423ZM1053.15 411.964C1052.1 413.964 1050.5 415.6 1049.59 415.6C1048.69 415.6 1046.44 417.236 1044.6 419.236C1042.76 421.236 1040.43 422.872 1039.43 422.872C1038.43 422.872 1036.99 424.001 1036.24 425.381C1035.48 426.761 1033.38 427.906 1031.56 427.927C1027.16 427.975 1026.64 431.628 1029.87 439.632C1032.65 446.504 1036.39 448.954 1043.83 448.785C1046.15 448.733 1048.25 449.33 1048.51 450.114C1048.77 450.897 1050.56 451.23 1052.49 450.853C1055.21 450.322 1056 449.265 1056 446.152C1056 443.943 1056.96 441.322 1058.14 440.326C1059.32 439.33 1060.28 437.363 1060.28 435.954C1060.28 434.54 1061.68 433.019 1063.41 432.559C1066.37 431.768 1066.4 431.579 1064.12 429.001C1060.88 425.355 1061.07 420.997 1064.6 417.736L1067.5 415.06L1063.53 411.746C1058.36 407.429 1055.5 407.488 1053.15 411.964ZM1096.61 428.741C1095.68 431.742 1098.14 438.871 1100.11 438.871C1100.89 438.871 1101.16 437.89 1100.71 436.69C1100.25 435.49 1100.58 434.508 1101.43 434.508C1102.47 434.508 1102.55 433.369 1101.67 431.022C1100.96 429.103 1100.65 427.249 1100.99 426.9C1101.34 426.552 1100.66 426.266 1099.5 426.266C1098.33 426.266 1097.03 427.38 1096.61 428.741ZM1084.1 430.291C1082.7 431.125 1079.69 431.388 1077.41 430.878C1071.35 429.521 1068.05 432.069 1065.95 439.718C1064.53 444.877 1064.48 447.139 1065.72 449.173C1066.62 450.644 1066.98 452.855 1066.52 454.085C1065.98 455.505 1066.48 456.325 1067.87 456.325C1069.08 456.325 1070.47 455.035 1070.96 453.457C1071.69 451.099 1072.31 450.881 1074.43 452.232C1075.85 453.135 1078.07 453.457 1079.38 452.945C1081.59 452.079 1081.59 451.748 1079.32 448.209C1077.36 445.158 1077.21 443.86 1078.55 441.657C1081.02 437.631 1080.7 437.183 1075.74 437.687C1073.08 437.958 1071 437.405 1070.64 436.326C1070.19 435.018 1072.17 434.508 1077.69 434.508C1084.73 434.508 1088.79 432.806 1088.79 429.854C1088.79 428.303 1087.2 428.452 1084.1 430.291ZM750.962 436.725C750.962 438.518 746.884 441.78 744.642 441.78C742.707 441.78 744.066 435.974 746.3 434.7C749.173 433.059 750.962 433.836 750.962 436.725ZM1107.32 435.962C1107.32 436.762 1108.76 438.889 1110.52 440.689C1112.29 442.49 1113.56 444.489 1113.35 445.131C1112.75 446.968 1117.52 451.217 1120.39 451.399C1125.49 451.723 1135.88 456.628 1137.34 459.395C1138.45 461.52 1138.27 462.764 1136.61 464.463C1133.51 467.623 1133.85 468.407 1137.96 467.604C1139.92 467.223 1142.65 467.78 1144.02 468.844C1145.39 469.907 1148.98 470.798 1152 470.823C1156.32 470.86 1157.63 470.25 1158.23 467.92C1159.22 464.047 1163.71 465.28 1168.81 470.829C1172.87 475.24 1183.24 478.139 1184.94 475.336C1185.46 474.48 1185.28 473.779 1184.55 473.779C1183.82 473.779 1180.5 471.241 1177.18 468.138C1172.96 464.204 1171.72 462.252 1173.08 461.685C1174.57 461.061 1174.36 460.357 1172.17 458.664C1170.61 457.451 1168.04 455.198 1166.47 453.656C1162.57 449.826 1158.92 448.046 1146.3 443.846L1135.49 440.243L1130.87 443.837C1125.78 447.802 1123 446.759 1123 440.883C1123 438.186 1121.82 437.399 1115.8 436.083C1107.05 434.169 1107.32 434.172 1107.32 435.962ZM1091.64 448.325C1091.64 449.525 1092.6 450.507 1093.78 450.507C1094.95 450.507 1095.91 449.525 1095.91 448.325C1095.91 447.125 1094.95 446.144 1093.78 446.144C1092.6 446.144 1091.64 447.125 1091.64 448.325ZM1098.76 447.44C1098.76 448.631 1108.82 450.635 1109.95 449.671C1110.23 449.437 1110.03 448.548 1109.51 447.696C1108.38 445.827 1098.76 445.598 1098.76 447.44ZM1187.31 452.475C1186.38 453.626 1183.39 454.991 1180.68 455.512C1174.65 456.665 1174.29 458.678 1179.89 459.935C1184.31 460.924 1189.37 458.632 1190.72 455.022C1191.88 451.94 1189.31 450.018 1187.31 452.475ZM1198.54 456.194C1198.54 459.189 1200.39 462.143 1202.26 462.143C1205.2 462.143 1204.67 458.747 1201.4 456.662C1199.83 455.663 1198.54 455.452 1198.54 456.194ZM1207.13 462.905C1208.12 464.124 1209.22 464.822 1209.58 464.457C1210.57 463.448 1208.56 460.688 1206.84 460.688C1205.89 460.688 1206 461.523 1207.13 462.905ZM1213.1 465.248C1213.75 467.251 1219.93 469.872 1219.93 468.147C1219.93 467.501 1218.26 466.201 1216.23 465.257C1213.42 463.946 1212.67 463.945 1213.1 465.248ZM1067.41 467.916C1067.41 468.74 1069.65 469.415 1072.39 469.415C1075.14 469.415 1077.38 468.895 1077.38 468.257C1077.38 467.622 1075.14 466.947 1072.39 466.758C1069.65 466.569 1067.41 467.09 1067.41 467.916ZM1085.58 469.184C1081.87 471.467 1080.21 475.233 1082.91 475.233C1084.42 475.233 1097.34 467.959 1097.34 467.11C1097.34 465.571 1089.08 467.027 1085.58 469.184ZM1066.61 473.098C1069.7 475.482 1073.11 475.921 1073.11 473.934C1073.11 472.4 1069.57 470.851 1066.22 470.916C1064.17 470.956 1064.22 471.255 1066.61 473.098ZM1217.07 472.169C1217.07 473.643 1221.42 475.652 1222.41 474.637C1222.77 474.272 1222.64 473.274 1222.12 472.422C1220.98 470.544 1217.07 470.348 1217.07 472.169ZM1113.73 479.588C1114.41 481.774 1114.1 482.281 1112.49 481.647C1111.24 481.16 1109.26 482.171 1107.76 484.057C1100.75 492.874 1100.3 493.136 1097.62 489.833L1095.2 486.834L1090.57 489.739C1087.75 491.509 1085.94 493.823 1085.94 495.66C1085.94 497.319 1085.31 498.281 1084.54 497.796C1082.11 496.262 1077.45 499.888 1075.39 504.919C1073.69 509.083 1072.11 510.197 1064.35 512.731C1047.69 518.165 1044.62 519.949 1044.37 524.34C1044.25 526.531 1044.26 529.584 1044.4 531.127C1044.54 532.669 1043.92 534.395 1043.03 534.959C1041.83 535.71 1041.97 537.115 1043.54 540.155C1044.71 542.446 1046.32 545.957 1047.1 547.957C1047.88 549.956 1049.24 553.424 1050.12 555.661C1052.2 560.943 1052.15 564.75 1049.94 568.383C1048.48 570.8 1048.54 571.567 1050.3 572.739C1054.85 575.766 1059.09 575.847 1065.66 573.036C1070.02 571.165 1074.28 570.395 1077.74 570.848C1081.05 571.28 1083.09 570.946 1083.09 569.97C1083.09 565.846 1102.92 560.261 1112.41 561.714C1119.01 562.724 1123.68 566.399 1125.97 572.386L1127.25 575.725L1130.37 572.764C1133.84 569.462 1135.81 569.919 1133 573.375C1131.52 575.197 1131.59 575.591 1133.39 575.591C1134.6 575.591 1135.91 574.921 1136.31 574.101C1136.71 573.28 1136.88 573.426 1136.68 574.423C1136.49 575.421 1134.77 576.658 1132.87 577.17C1128.72 578.287 1131.7 579.897 1137.16 579.488C1139.76 579.293 1140.85 580.113 1141.47 582.726C1142.34 586.376 1143.16 587.029 1151.72 590.894C1156.03 592.839 1157.44 592.924 1159.84 591.391C1162.28 589.835 1163.18 589.937 1165.45 592.03C1168 594.39 1168.28 594.372 1170.66 591.685C1172.05 590.123 1174.97 588.446 1177.15 587.957C1180.38 587.233 1181.45 585.851 1182.92 580.474C1183.92 576.847 1186.22 571.643 1188.04 568.908C1191.73 563.355 1196.31 547.238 1194.87 544.86C1194.35 544.013 1193.97 540.751 1194.01 537.609C1194.06 534.468 1193.61 532.2 1193.03 532.57C1192.44 532.939 1190.4 531.221 1188.48 528.753C1186.57 526.285 1183.93 523.101 1182.62 521.677C1181.3 520.253 1179.52 517.736 1178.65 516.083C1177.79 514.431 1175.15 512.063 1172.8 510.82C1169.98 509.335 1168.22 507.077 1167.67 504.229C1167.2 501.847 1166.26 499.546 1165.58 499.115C1164.89 498.685 1164.33 497.068 1164.33 495.521C1164.33 493.977 1163.05 491.894 1161.48 490.895C1159.92 489.896 1158.63 488.517 1158.63 487.83C1158.63 485.615 1154.07 476.688 1152.94 476.688C1151.58 476.688 1150.02 481.601 1149.25 488.323C1148.05 498.765 1147.06 502.868 1145.73 502.868C1144.98 502.868 1140.6 500.47 1136.01 497.537L1127.65 492.207L1130.49 487.294C1132.05 484.591 1133.02 482.071 1132.65 481.691C1132.28 481.311 1128.95 480.77 1125.25 480.488C1121.55 480.204 1117.8 479.234 1116.91 478.331C1114.38 475.754 1112.74 476.402 1113.73 479.588ZM805.841 482.505C805.343 484.105 804.413 485.414 803.773 485.414C803.133 485.414 802.28 486.702 801.877 488.275C801.473 489.851 798.672 492.304 795.652 493.73C788.359 497.174 787.792 498.126 788.529 505.69C788.938 509.884 788.425 513.291 787.064 515.41C785.546 517.775 785.242 520.534 785.962 525.43C787.115 533.281 790.679 535.976 796.774 533.611C799.85 532.418 801.191 529.863 804.93 518.079C807.39 510.321 809.409 503.235 809.413 502.33C809.419 501.427 810.352 498.867 811.49 496.641C812.627 494.418 813.205 491.472 812.773 490.096C809.343 479.169 807.504 477.156 805.841 482.505ZM1290.4 499.274C1287.72 501.428 1287.74 501.486 1291.09 501.092C1292.98 500.87 1294.8 499.869 1295.12 498.868C1295.92 496.394 1293.75 496.58 1290.4 499.274ZM1283.45 504.17C1283.01 504.887 1283.67 505.869 1284.91 506.351C1288.47 507.745 1289.77 507.396 1289.77 505.05C1289.77 502.708 1284.76 502.01 1283.45 504.17ZM1236.44 517.548C1239.63 521.146 1244.09 523.782 1245.16 522.695C1246.23 521.6 1238.15 514.606 1235.74 514.55C1234.25 514.515 1234.43 515.285 1236.44 517.548ZM1265.54 572.043C1265.54 573.235 1271.57 582.01 1272.76 582.551C1274.03 583.127 1272.61 590.447 1270.76 592.822C1269.63 594.277 1269.86 595.138 1271.66 596.166C1273 596.93 1274.09 599.205 1274.09 601.224C1274.09 606.447 1278.5 605.232 1281.22 599.259C1282.39 596.675 1284.09 594.549 1284.99 594.532C1286.72 594.498 1288.35 591.25 1288.35 587.807C1288.35 586.35 1287.35 585.972 1285.06 586.56C1282.41 587.237 1280.67 586.081 1276.15 580.644C1270.88 574.304 1265.54 569.977 1265.54 572.043ZM1172.89 598.015C1172.89 600.709 1170.37 601.545 1164.85 600.685L1160.37 599.989L1161.9 605.86C1163.71 612.772 1168.01 615.604 1172.09 612.565C1175.15 610.28 1177.22 595.954 1174.49 595.954C1173.61 595.954 1172.89 596.88 1172.89 598.015ZM1264.61 600.037C1263.77 600.591 1262.61 602.543 1262.05 604.372C1261.49 606.204 1258.38 609.476 1255.13 611.645C1247.59 616.685 1244.68 619.636 1243.49 623.445C1242.8 625.66 1243.15 626.498 1244.77 626.498C1246 626.498 1247.01 627.48 1247.01 628.68C1247.01 629.879 1247.65 630.861 1248.43 630.861C1249.22 630.861 1249.86 630.288 1249.86 629.589C1249.86 628.889 1251.81 627.917 1254.2 627.43C1257.41 626.776 1258.95 625.365 1260.08 622.053C1260.93 619.561 1263.12 616.977 1265.01 616.245C1266.88 615.519 1268.26 614.421 1268.08 613.803C1267.9 613.185 1268.93 610.886 1270.37 608.692C1272.68 605.165 1272.59 598.453 1270.27 600.824C1269.77 601.331 1268.64 601.135 1267.76 600.389C1266.88 599.641 1265.46 599.483 1264.61 600.037ZM398.897 651.934C397.465 653.695 397.596 654.278 399.602 655.064C402.631 656.249 409.126 654.063 409.933 651.587C410.794 648.94 401.084 649.244 398.897 651.934ZM363.792 660.753C364.278 662.048 364.039 662.631 363.232 662.122C362.457 661.633 361.822 660.618 361.822 659.865C361.822 657.773 362.844 658.234 363.792 660.753Z" fill="#0D1922"/>
</svg>
