<svg width="389" height="512" viewBox="0 0 389 512" fill="none" xmlns="http://www.w3.org/2000/svg">
<rect x="37.5" y="203" width="315" height="232" fill="#F5F5F5"/>
<path fill-rule="evenodd" clip-rule="evenodd" d="M52.481 2.04909C33.2585 5.87535 15.1601 20.0016 6.45053 37.978C-0.444723 52.2101 0.00611863 36.94 0.00611863 256.25C0.00611863 475.744 -0.44971 460.454 6.50738 474.537C15.6668 493.077 33.017 508.197 52.8639 512C64.3344 512 322.532 512 335.137 512C357.841 507.713 378.486 489.015 386.663 466.045L388.5 460.051V304.703V151.352H309.204H237.389L237.365 76.3036C237.365 5.9293 237.389 3.49668 237.389 3.49668V2.49765V0.499603L148.19 0.593512C77.4687 0.668438 57.926 0.965149 52.481 2.04909ZM284.597 281.252C292.528 283.707 298.598 288.136 302.992 294.677C308.705 303.704 310.202 302.205 295.558 307.798L285.427 312.031L283.09 307.486C280.371 302.198 275.637 299.208 269.981 299.208C263.374 299.208 259.118 303.111 261.292 307.177C262.762 309.929 264.926 310.911 275.508 313.626C292.654 318.027 300.103 322.873 304.129 332.249C307.134 339.243 307.134 350.164 304.129 356.565C299.462 366.51 289.76 372.193 275.291 373.136C261.59 374.029 248.09 369.827 240.399 360.082C236.715 355.413 234.634 347.348 234.634 344.923C235.893 344.164 252.849 339.169 254.394 338.714C254.844 339.169 255.343 340.667 256.34 342.166C258.834 346.162 262.134 351.766 267.146 353.117C276.686 355.69 284.461 350.099 281.628 342.704C280.793 340.527 275.352 337.861 266.291 335.191C255.316 331.958 247.061 327.72 243.031 323.251C239.556 319.399 236.368 311.366 236.368 306.462C236.368 295.479 245.429 284.489 257.637 280.665C264.165 278.621 276.993 278.901 284.597 281.252ZM109.694 290.716C113.103 296.486 116.207 301.206 116.592 301.206C116.976 301.206 119.909 296.671 123.11 291.13C126.311 285.587 129.666 280.226 129.666 280.226C129.666 280.226 137.569 280.226 142.633 280.226C147.307 280.226 154.602 280.226 154.602 280.226L143.06 300.207C136.652 310.922 130.979 320.615 130.451 321.748C129.654 323.46 131.629 327.425 142.14 345.225C149.095 357.005 155.682 368.117 156.778 369.92L158.592 372.636H146.124H133.241L126.931 362.146C123.461 356.377 119.708 350.124 118.589 348.251L116.556 344.845L108.085 358.991L99.7433 372.636H87.2754C80.401 372.636 74.8074 372.636 74.8074 372.636C74.8074 372.636 81.7138 360.61 89.5736 347.355L103.866 323.252L91.3191 302.335C84.4188 290.83 78.7972 280.226 78.7972 280.226C78.7972 280.226 84.3361 280.226 91.1346 280.226H103.496L109.694 290.716ZM190.486 316.17V352.115L210.684 352.385L230.882 352.656L231.166 362.896L231.45 373.136H198.999H166.547V326.681V280.226H178.517H190.486V316.17Z" fill="#00733B"/>
<path fill-rule="evenodd" clip-rule="evenodd" d="M237.388 10.7151C237.388 16.7151 237.388 146.715 237.388 146.715L237.388 151.361H283.73H356.93H388.5L313.22 75.7151C275.831 38.7151 237.575 0.688 237.388 0.5C237.388 0.5 237.388 8.26898 237.388 10.7151Z" fill="#4D9D76"/>
</svg>
