<svg width="389" height="512" viewBox="0 0 389 512" fill="none" xmlns="http://www.w3.org/2000/svg">
<rect x="44" y="204" width="315" height="232" fill="#F5F5F5"/>
<path fill-rule="evenodd" clip-rule="evenodd" d="M6.45053 37.9778C15.1601 20.0014 33.7775 5.82624 53 1.99998C58.445 0.916034 77.279 0.480469 148 0.405542L237.389 0.405518V2.49749V3.49651C237.389 3.49651 237.365 5.92915 237.365 76.3034L237.389 151.352H309.204H388.5V267.5V460.051L386.663 466.045C378.486 489.014 357.841 507.713 335.137 512H52.8639C33.017 508.197 15.6668 493.076 6.50738 474.537C5.65167 472.805 4.90811 471.517 4.26205 470.182C-0.344474 460.663 0.00611862 448.746 0.00611862 256.25C0.00611862 63.9555 -0.34049 52.0075 4.2222 42.388C4.86322 41.0365 5.60114 39.731 6.45053 37.9778ZM271.992 295.451C267.598 288.909 261.528 284.481 253.597 282.026C245.993 279.674 233.165 279.395 226.637 281.439C214.429 285.263 205.368 296.252 205.368 307.235C205.368 312.14 208.556 320.173 212.031 324.025C216.061 328.494 224.316 332.731 235.291 335.964C244.352 338.635 249.793 341.3 250.628 343.478C253.461 350.873 245.686 356.463 236.146 353.891C231.347 352.596 228.117 347.403 225.662 343.456C225.553 343.281 225.446 343.109 225.34 342.939C224.825 342.165 224.442 341.391 224.131 340.76C223.84 340.171 223.612 339.707 223.394 339.488C221.849 339.942 204.893 344.938 203.634 345.697C203.634 348.122 205.715 356.187 209.399 360.856C217.09 370.6 230.59 374.802 244.291 373.909C258.76 372.966 268.462 367.284 273.129 357.338C276.134 350.938 276.134 340.016 273.129 333.022C269.103 323.646 261.654 318.8 244.508 314.399C233.926 311.685 231.762 310.703 230.292 307.951C228.118 303.885 232.374 299.981 238.981 299.981C244.637 299.981 249.371 302.972 252.09 308.259L254.427 312.805L264.558 308.571C272.424 305.567 275.633 304.609 276.033 302.967C276.378 301.552 274.637 299.629 271.992 295.451ZM85.592 301.979C85.207 301.979 82.103 297.259 78.6938 291.49L72.4957 281H60.1346H47.7972C47.7972 281 53.4188 291.604 60.3191 303.108L72.8658 324.026L58.5736 348.128C50.7138 361.383 43.8074 373.41 43.8074 373.41H56.2754H68.7433L77.0849 359.764L85.5561 345.619L87.5889 349.025C88.708 350.898 92.4613 357.151 95.9314 362.92L102.241 373.41H115.124H127.592L125.778 370.693C124.682 368.89 118.095 357.778 111.14 345.998C100.629 328.199 98.6544 324.234 99.4514 322.521C99.979 321.388 105.652 311.695 112.06 300.98L123.602 281H111.633H98.6662C98.6662 281 95.311 286.361 92.1103 291.903C88.9095 297.445 85.976 301.979 85.592 301.979ZM159.486 352.889V316.944V281H147.517H135.547V327.455V373.909H167.999H200.45L200.166 363.669L199.882 353.429L179.684 353.158L159.486 352.889ZM315.5 301.979C315.115 301.979 312.011 297.259 308.602 291.49L302.404 281H290.043H277.705C277.705 281 283.327 291.604 290.227 303.108L302.774 324.026L288.482 348.128C280.622 361.383 273.716 373.41 273.716 373.41H286.184H298.651L306.993 359.764L315.464 345.619L317.497 349.025C318.616 350.898 322.37 357.151 325.84 362.92L332.149 373.41H345.032H357.5L355.686 370.693C354.591 368.89 348.004 357.778 341.048 345.999C330.538 328.199 328.563 324.234 329.36 322.521C329.887 321.389 335.561 311.695 341.968 300.98L353.51 281H341.541H328.574C328.574 281 325.219 286.361 322.018 291.903C318.818 297.445 315.884 301.979 315.5 301.979Z" fill="#01562D"/>
<path fill-rule="evenodd" clip-rule="evenodd" d="M237.327 10.6919C237.327 16.6919 237.327 146.692 237.327 146.692L237.327 151.338H283.669H356.869H388.5L313.16 75.6919C275.77 38.6919 237.514 0.526135 237.327 0.338135C237.327 0.338135 237.327 8.24579 237.327 10.6919Z" fill="#317B57"/>
</svg>
